<?xml version="1.0" encoding="UTF-8"?>
<svg id="Capa_1" data-name="Capa 1" xmlns="http://www.w3.org/2000/svg" width="132" height="46" xmlns:xlink="http://www.w3.org/1999/xlink" viewBox="0 0 132 46">
  <defs>
    <linearGradient id="Degradado_sin_nombre_24" data-name="Degradado sin nombre 24" x1="25.34" y1="11.25" x2="59.48" y2="11.25" gradientUnits="userSpaceOnUse">
      <stop offset="0" stop-color="#fff"/>
      <stop offset="1" stop-color="#9d9d9c"/>
    </linearGradient>
    <linearGradient id="Degradado_sin_nombre_26" data-name="Degradado sin nombre 26" x1="27.75" y1="34.02" x2="59.48" y2="34.02" gradientUnits="userSpaceOnUse">
      <stop offset="0" stop-color="#fff"/>
      <stop offset="1" stop-color="#b2b2b2"/>
    </linearGradient>
  </defs>
  <g>
    <polygon points="33.75 22.4 25.34 .1 59.48 22.14 33.75 22.4" style="fill: url(#Degradado_sin_nombre_24); fill-rule: evenodd; stroke-width: 0px;"/>
    <polygon points="27.75 45.9 59.48 22.14 41.98 22.32 27.75 45.9" style="fill: url(#Degradado_sin_nombre_26); fill-rule: evenodd; stroke-width: 0px;"/>
  </g>
  <path d="M7.19,34.46l-4.07-6.26v6.26H0v-11.71h3.11l4.08,6.32v-6.32h3.14v11.71h-3.14ZM20.08,34.47l-.6-1.62h-3.61l-.6,1.62h-3.31l4.33-11.73h2.77l4.34,11.73h-3.31ZM17.68,27.02l-.94,3.1h1.86l-.92-3.1ZM31.44,34.47h-6.65v-11.73h6.14c.22,0,.45.03.69.08.24.05.47.13.7.24.23.1.44.23.63.37.2.14.36.3.51.47.25.3.45.64.58,1.01.14.37.2.76.2,1.15,0,.45-.09.89-.27,1.31-.18.42-.44.78-.78,1.1.22.14.43.32.61.51.19.2.35.42.48.66.13.24.23.5.31.76.07.27.11.53.11.78,0,.45-.08.86-.25,1.26-.17.4-.4.75-.7,1.04-.3.3-.64.53-1.03.71-.39.18-.81.27-1.27.27h0ZM29.97,25.1h-2.1v2.39h2.1c.32,0,.6-.12.84-.36.24-.23.36-.51.36-.84s-.12-.6-.36-.84c-.23-.24-.52-.36-.84-.36h0ZM30.07,29.62h-2.21v2.37h2.21c.33,0,.61-.12.85-.35.23-.23.35-.51.35-.85s-.12-.6-.35-.83c-.23-.23-.51-.35-.85-.35h0Z" style="fill: #ededed; stroke-width: 0px;"/>
  <g>
    <path d="M12.23,26.58c.54,0,.98.44.98.98s-.44.98-.98.98-.98-.44-.98-.98.44-.98.98-.98h0Z" style="fill: #ededed; fill-rule: evenodd; stroke-width: 0px;"/>
    <path d="M23.03,26.58c.54,0,.98.44.98.98s-.44.98-.98.98-.98-.44-.98-.98.44-.98.98-.98h0Z" style="fill: #ededed; fill-rule: evenodd; stroke-width: 0px;"/>
  </g>
</svg>