<?xml version="1.0" encoding="UTF-8"?>
<svg id="Capa_1" data-name="Capa 1" xmlns="http://www.w3.org/2000/svg" width="50" height="50" viewBox="0 0 50 50">
  <path d="M34.54,31.33H15.4l-.69,2.29h5.1l.97,3.15h8.38l.97-3.15h5.1l-.69-2.29ZM18.52,18.49c-1.47,2.02-1.02,4.85,1,6.32l4.58,3.33c.51.37.62,1.08.25,1.58l.69.5,2.42-3.33c.56-.77.87-1.7.87-2.65,0-.24-.02-.48-.06-.72-.18-1.18-.83-2.24-1.79-2.95l-4.58-3.32c-.25-.17-.43-.44-.48-.74,0-.06,0-.12,0-.18,0-.24.08-.47.22-.66l-.69-.5-2.43,3.34ZM21.28,5.12c-.81,1.11-1.25,2.46-1.25,3.84,0,.35.03.7.08,1.05.27,1.72,1.21,3.26,2.62,4.28l5.76,4.18c.75.54,1.26,1.37,1.4,2.29.03.19.05.37.05.56,0,.74-.24,1.45-.68,2.04l.56.4,4.53-6.27c2.12-2.94,1.46-7.03-1.46-9.16l-6.95-5.05c-.43-.31-.72-.79-.81-1.32-.09-.53.04-1.07.36-1.51l-.55-.4-3.67,5.07ZM9.53,38.69h5.25c1.08-.07,2.14.29,2.95,1,.51.51.79,1.2.77,1.92v.04c.03,1.03-.55,1.98-1.48,2.43,1.3.5,2.11,1.26,2.11,2.78,0,2.07-1.67,3.1-4.22,3.1h-5.38v-11.26ZM14.26,43.25c1.09,0,1.79-.36,1.79-1.19,0-.75-.6-1.19-1.63-1.19h-2.47v2.39h2.31ZM14.91,47.8c1.1,0,1.76-.39,1.76-1.19v-.04c0-.75-.56-1.19-1.83-1.19h-2.89v2.49l2.97-.06ZM20.23,38.69h5.25c1.08-.07,2.14.29,2.95,1,.51.51.78,1.2.76,1.92v.04c.03,1.03-.55,1.98-1.48,2.43,1.31.5,2.12,1.26,2.12,2.78,0,2.07-1.68,3.1-4.23,3.1h-5.37v-11.26ZM24.95,43.25c1.09,0,1.79-.36,1.79-1.19,0-.75-.6-1.19-1.63-1.19h-2.49v2.39h2.32ZM25.6,47.8c1.1,0,1.76-.39,1.76-1.19v-.04c0-.75-.56-1.19-1.83-1.19h-2.9v2.49l2.98-.06ZM30.88,38.69h5.25c1.08-.07,2.14.29,2.95,1,.51.51.79,1.2.77,1.92v.04c.03,1.03-.55,1.98-1.48,2.43,1.31.5,2.12,1.26,2.12,2.78,0,2.07-1.68,3.1-4.23,3.1h-5.38v-11.26ZM35.59,43.25c1.09,0,1.79-.36,1.79-1.19,0-.75-.6-1.19-1.63-1.19h-2.46v2.39h2.29ZM36.25,47.8c1.1,0,1.76-.39,1.76-1.19v-.04c0-.75-.57-1.19-1.84-1.19h-2.87v2.49l2.95-.06Z" style="fill: #fff; opacity: .5; stroke-width: 0px;"/>
</svg>