<?xml version="1.0" encoding="UTF-8"?>
<svg id="Capa_1" data-name="Capa 1" xmlns="http://www.w3.org/2000/svg" width="120" height="33" viewBox="0 0 120 33">
  <path d="M.05,16.5C.05,8.22,26.89,1.51,60,1.51s59.95,6.72,59.95,14.99-26.84,14.99-59.95,14.99S.05,24.78.05,16.5H.05ZM100.72,19.5c.02-.08.05-.2.07-.32h8.1c.93-3.65,1.35-5.33-.2-6.79-1.02-.96-2.76-1.35-4.71-1.35-2.63,0-4.26.38-5.6,1.31-1.48,1.03-2.32,2.67-2.94,5.11-.89,3.4-.9,5.21.25,6.54.79.91,2.27,1.6,4.79,1.61,2.97,0,4.43-.44,5.48-1.14,1.41-.94,2.13-1.98,2.63-4.05h-5.45c-.13.52-.23,1.31-.56,1.72-.24.3-.6.54-1.25.5-.43-.02-.77-.17-.91-.44-.16-.3-.11-.68-.06-.95.14-.74.25-1.06.4-1.73h-.02ZM103.38,14.01c.84,0,1.09.46.99,1.03-.05.28-.19.8-.36,1.33h-2.61c.16-.52.34-1.08.47-1.38.24-.58.65-.96,1.5-.96h0v-.02ZM31.69,17.97l.08-.42h10.43c1.19-4.7,1.72-6.87-.28-8.73-1.32-1.24-3.56-1.73-6.06-1.73-4.51,0-9.18,1.11-10.54,6.51-.2.8-.89,3.18-1.03,3.81-.5,2.27-.7,4.34.26,5.77,1.2,1.8,3.44,2.55,6.79,2.61,3.8.06,5.69-.56,7.05-1.48,1.8-1.23,2.73-2.56,3.39-5.2h-6.99c-.17.66-.3,1.68-.72,2.21-.3.38-.77.68-1.62.65-.56-.02-.94-.19-1.17-.55-.2-.34-.17-.87-.1-1.2.18-.95.32-1.41.52-2.27h0v.02h-.02,0ZM35.14,10.89c1.09,0,1.41.64,1.29,1.44-.06.35-.22,1.09-.41,1.74h-3.39c.2-.73.4-1.38.56-1.84.3-.79.85-1.36,1.95-1.36h.02-.02ZM90.28,6.97h5.83l-4.54,18.26h-5.85l4.57-18.26h0ZM86.59,11.48l-3.44,13.74h-5.85l3.44-13.74h5.85ZM79.92,6.97l-.73,2.94h-1.07c-.77,0-1.18.24-1.35.85l-.18.73h2.2l-.8,3.21h-2.2l-2.63,10.54h-5.85l2.63-10.54h-1.85l.8-3.21h1.85l.36-1.44c.42-1.71,1.47-3.09,4.46-3.09,0,0,4.36,0,4.36,0ZM9.65,10.08h2.37l-1.77,7.03h-2.37l1.74-7.03h.02ZM13.46,10.08h3c.93,0,1.62.06,2.1.56.3.32.42.74.26,1.43-.24.99-.8,1.35-1.59,1.53v.04c.67.18.96.65.8,1.36-.13.59-.2.88-.26,1.25-.06.31-.02.6.11.87h-2.5c-.06-.47.12-1.17.32-2.04.13-.56-.08-.68-.4-.68h-.56l-.68,2.74h-2.37l1.77-7.03h-.01ZM15.09,13.06h.35c.64,0,.89-.3,1.02-.8.11-.46-.14-.72-.42-.72h-.56l-.38,1.53h0ZM23,10c1.9,0,2.7.61,2.37,2.1h-2.14c.06-.26.08-.44,0-.56-.07-.12-.26-.18-.49-.18-.28,0-.56.1-.64.44-.11.47.05.64,1.06,1.09,1.13.5,1.86,1.05,1.53,2.44-.36,1.44-1.53,1.96-3.18,1.96-.85,0-1.68-.13-2.13-.52s-.56-.89-.34-1.79h2.19s-.02.11-.05.18c-.16.62.13.79.55.78.48,0,.64-.3.67-.54.08-.47-.14-.67-1.54-1.41-.97-.5-1.2-1.2-.93-2.22.32-1.29,1.61-1.77,3.09-1.77h-.02ZM42.41,18.42l13.97-6.51-.87,4.26,10.66-4.34-14.27,8.94.79-4.69-10.28,2.33h.01-.01ZM87.66,6.97l-.79,3.42h-5.85l.87-3.42h5.79s-.01,0-.01,0Z" style="fill: #fff; fill-rule: evenodd; opacity: .5; stroke-width: 0px;"/>
</svg>