<?xml version="1.0" encoding="UTF-8"?>
<svg id="Capa_1" data-name="Capa 1" xmlns="http://www.w3.org/2000/svg" width="50" height="50" viewBox="0 0 50 50">
  <g style="opacity: .5;">
    <path d="M25,49.95C11.24,49.95.05,38.76.05,25S11.24.05,25,.05s24.95,11.19,24.95,24.95-11.19,24.95-24.95,24.95ZM25,1.03C11.78,1.03,1.03,11.78,1.03,25s10.75,23.97,23.97,23.97,23.97-10.75,23.97-23.97S38.22,1.03,25,1.03Z" style="fill: #fff; stroke-width: 0px;"/>
    <path d="M24.78,42.86c-9.9,0-17.96-8.06-17.96-17.96S14.88,6.95,24.78,6.95s17.96,8.05,17.96,17.96-8.05,17.96-17.96,17.96ZM24.78,7.65c-9.51,0-17.25,7.74-17.25,17.25s7.74,17.25,17.25,17.25,17.25-7.74,17.25-17.25S34.29,7.65,24.78,7.65Z" style="fill: #fff; stroke-width: 0px;"/>
    <path d="M9.95,12.48s.06.06.08.09c.02.03.03.07.03.11,0,.04,0,.07-.02.11-.01.04-.03.07-.05.1l-.2.28c-.04.06-.09.1-.13.14-.04.03-.09.06-.15.07-.05.01-.12.02-.19.02s-.17-.01-.27-.03l-2.01-.24c-.12-.02-.25-.03-.38-.06-.13-.02-.26-.05-.38-.08h0c.12.08.23.16.35.24.11.08.23.16.35.25l1.59,1.16s.03.03.03.04c0,.02,0,.04,0,.07,0,.03-.02.06-.05.11-.02.04-.06.09-.1.15-.04.06-.08.1-.11.14-.03.03-.06.06-.09.07-.02.02-.05.02-.06.02-.02,0-.04,0-.05-.02l-2.74-2c-.07-.05-.11-.12-.12-.19,0-.07.02-.14.07-.21l.26-.35c.05-.06.09-.11.13-.15.04-.04.09-.06.14-.08.05-.02.1-.03.17-.02.06,0,.14,0,.22.02l1.57.18c.09.01.19.02.28.04.09.01.18.02.27.04.09.01.18.03.26.04.09.01.17.03.26.05h0c-.11-.08-.23-.16-.35-.24-.12-.08-.24-.17-.34-.25l-1.43-1.04s-.03-.03-.03-.05c0-.02,0-.04,0-.07,0-.03.02-.07.05-.11s.06-.09.1-.15c.04-.06.08-.1.11-.14.03-.04.06-.06.09-.07.02-.01.05-.02.06-.02.02,0,.04,0,.05.02l2.74,2ZM12.04,8.32c.21.24.36.47.46.71.1.24.15.48.14.71,0,.24-.07.47-.19.69s-.3.44-.54.65c-.23.21-.46.36-.69.45-.22.09-.45.13-.67.12-.22-.02-.44-.09-.66-.22-.22-.13-.44-.32-.66-.57-.2-.23-.35-.46-.45-.7-.1-.24-.14-.47-.13-.71s.07-.47.19-.69c.12-.23.3-.45.54-.66.23-.2.45-.35.68-.44s.45-.14.67-.12c.22.02.44.09.66.22.22.13.44.32.65.56ZM11.43,8.91c-.13-.15-.26-.27-.39-.37-.13-.1-.27-.17-.4-.2s-.27-.03-.42,0c-.14.04-.29.12-.43.26-.15.13-.25.27-.31.41s-.07.28-.06.43c.02.14.06.29.14.43.08.14.18.28.29.41.14.16.27.28.4.38.13.1.27.17.4.21.14.04.27.03.41,0,.14-.04.28-.13.43-.26.15-.13.25-.27.31-.41.05-.14.07-.28.06-.43-.02-.14-.07-.29-.15-.43-.08-.14-.18-.28-.3-.42ZM14.16,5.27s.05.09.07.13c.02.04.03.07.03.09,0,.03,0,.05,0,.07,0,.02-.02.03-.03.04l-.86.52,1.57,2.61s.01.03,0,.05c0,.02-.02.04-.04.07s-.05.05-.09.08c-.04.03-.1.07-.16.11s-.12.07-.17.09-.09.04-.12.04-.06,0-.08,0c-.02,0-.03-.02-.04-.03l-1.57-2.61-.86.52s-.04.01-.05.01c-.02,0-.04-.01-.06-.03-.02-.02-.04-.04-.07-.07s-.05-.07-.08-.12c-.03-.05-.05-.09-.07-.13-.02-.04-.03-.07-.03-.1,0-.03,0-.05,0-.06,0-.02.02-.03.04-.04l2.42-1.45s.03-.01.05-.01c.02,0,.04,0,.06.02.02.02.05.04.07.07.02.03.05.07.08.12ZM18.73,6.78c.05.06.09.1.11.14s.03.07.01.09c-.01.03-.05.05-.1.08s-.12.06-.22.1c-.1.04-.17.07-.23.09-.06.02-.1.03-.13.03-.03,0-.06,0-.07,0-.02,0-.03-.02-.05-.04l-.54-.6-1.39.57.05.78s0,.05,0,.08c0,.02-.02.04-.04.07-.02.02-.06.04-.11.07-.05.02-.11.05-.2.09-.09.04-.16.06-.21.08-.05.02-.09.02-.12,0s-.05-.04-.06-.08c0-.04-.02-.1-.02-.17l-.14-3.57s0-.07,0-.09c0-.03.02-.05.05-.07.03-.02.07-.05.13-.08.06-.03.14-.06.23-.1.11-.05.2-.08.27-.11.07-.02.12-.04.16-.05.04,0,.07,0,.1.01.02.01.05.03.08.06l2.42,2.62ZM15.97,4.93h0l.09,1.7,1.05-.43-1.14-1.27ZM22.1,6.25s0,.04,0,.05c0,.02-.02.03-.05.05-.03.02-.07.03-.13.05s-.14.04-.24.06c-.08.02-.15.03-.2.04-.05,0-.09,0-.12,0-.03,0-.06-.01-.07-.03-.02-.01-.03-.03-.04-.05l-.53-.75c-.06-.08-.12-.16-.18-.22-.06-.06-.11-.11-.17-.15-.06-.04-.12-.06-.19-.07-.07-.01-.15,0-.23.01l-.25.05.3,1.41s0,.04,0,.06-.03.04-.06.05c-.03.02-.07.03-.12.05-.05.02-.11.03-.19.05-.08.02-.14.03-.19.03s-.09,0-.13,0c-.03,0-.06-.01-.07-.02-.02-.01-.02-.03-.03-.05l-.72-3.35c-.02-.08,0-.15.03-.2.04-.05.09-.08.16-.09l1.01-.22c.1-.02.19-.04.26-.05s.13-.02.18-.02c.16-.01.31,0,.45.02.14.02.26.07.36.13s.19.15.26.25c.07.1.12.23.15.37.03.12.03.24.02.35-.01.11-.04.21-.09.3s-.11.18-.19.26c-.08.08-.18.15-.29.21.06.01.13.03.19.06.06.03.12.06.17.11.06.04.11.1.17.16.05.06.11.13.17.21l.49.66c.05.07.08.11.09.14.02.03.03.06.03.08ZM20.54,3.97c-.03-.12-.08-.22-.15-.29s-.19-.11-.33-.11c-.04,0-.09,0-.14,0-.05,0-.12.02-.22.04l-.36.08.23,1.05.4-.09c.11-.02.21-.06.29-.1.08-.04.14-.09.19-.15.05-.06.08-.12.09-.19.01-.07.01-.15,0-.23ZM23.99,4.82l.07,1.33s0,.04-.02.05c-.01.02-.03.03-.06.04s-.07.02-.12.03-.12.02-.2.02c-.08,0-.15,0-.2,0s-.09,0-.13-.02-.06-.02-.07-.03c-.01-.01-.02-.03-.02-.05l-.07-1.33-1.21-1.99c-.04-.07-.07-.12-.08-.16-.01-.04,0-.07.01-.09.02-.02.07-.04.13-.05.06,0,.15-.02.26-.02.09,0,.17,0,.23,0s.1,0,.14.01c.03,0,.06.02.07.04.02.02.03.04.05.06l.5.9c.05.09.1.18.14.28.05.1.1.2.15.3h0c.03-.11.07-.21.1-.31.04-.1.07-.2.11-.29l.39-.94s.02-.06.03-.08c.01-.02.04-.04.07-.05.03-.01.07-.02.13-.03.05,0,.12-.01.21-.02.12,0,.21,0,.27,0,.07,0,.11.01.14.03.02.02.03.05.02.09-.01.04-.03.1-.07.17l-.98,2.11ZM30.1,4.19c-.04.21-.1.39-.2.54s-.22.27-.37.36c-.15.09-.33.14-.53.17-.2.02-.43.01-.69-.03l-.33-.06-.2,1.19s-.01.04-.03.05c-.02.01-.04.02-.07.03-.03,0-.07,0-.13,0s-.12-.01-.2-.02c-.08-.01-.14-.03-.19-.04-.05-.02-.09-.03-.12-.04-.03-.02-.05-.03-.06-.05s-.01-.04,0-.05l.57-3.35c.02-.09.05-.15.11-.19s.13-.05.21-.03l.93.16c.09.02.18.03.26.06.08.02.18.05.3.1s.23.1.34.18c.11.08.2.17.27.28.07.11.12.22.14.35.02.13.02.27,0,.42ZM29.25,4.1c.02-.13.02-.24-.02-.33-.03-.09-.08-.17-.15-.22-.06-.05-.13-.09-.21-.11s-.16-.04-.24-.06l-.34-.06-.22,1.26.36.06c.13.02.24.02.33,0,.09-.02.17-.05.24-.1.06-.05.12-.11.16-.19.04-.08.07-.16.09-.26ZM33.65,6.69c-.08.22-.19.4-.32.55s-.28.26-.46.33c-.18.07-.37.1-.59.09-.22,0-.45-.06-.7-.15-.24-.09-.44-.19-.61-.32-.17-.12-.29-.27-.38-.43-.09-.16-.14-.34-.14-.53,0-.19.03-.4.12-.63l.79-2.16s.02-.03.04-.04c.02-.01.04-.01.07-.01.03,0,.08,0,.13.02.05.01.11.03.19.06.07.03.13.05.18.08.05.02.08.04.11.06.03.02.04.04.05.06,0,.02,0,.04,0,.06l-.77,2.09c-.05.14-.08.27-.08.39,0,.12.02.22.06.31.04.09.11.17.19.24.08.07.18.12.3.17.12.04.23.07.34.07s.21-.02.3-.06.17-.11.24-.19c.07-.08.13-.19.18-.31l.78-2.13s.02-.03.04-.04c.02-.01.04-.01.07-.01.03,0,.07,0,.13.02.05.01.11.03.19.06.07.03.13.05.18.07.05.02.08.04.11.06.03.02.04.04.05.06,0,.02,0,.04,0,.06l-.78,2.13ZM36.85,8.85c-.07.11-.15.21-.24.28-.09.07-.19.13-.29.16-.1.04-.21.05-.32.06-.11,0-.23,0-.35-.04-.12-.03-.24-.06-.36-.12s-.25-.12-.39-.2l-.91-.55c-.06-.04-.1-.08-.12-.14-.02-.06,0-.12.04-.19l1.69-2.82c.04-.07.1-.11.16-.12.06,0,.12,0,.18.04l.86.52c.21.13.38.25.5.37s.22.24.28.37c.06.13.08.26.08.39,0,.14-.06.27-.14.41-.05.08-.1.15-.17.2-.06.06-.13.1-.21.13-.07.03-.16.05-.24.06-.08,0-.17,0-.27-.02.09.08.16.16.22.25s.1.19.12.29c.02.1.02.21,0,.32-.02.11-.06.22-.13.33ZM36.11,8.44c.05-.07.07-.15.08-.23,0-.07,0-.15-.03-.22-.03-.07-.07-.14-.14-.21-.07-.07-.16-.14-.29-.22l-.41-.25-.55.92.5.3c.1.06.18.1.26.12.08.02.15.03.22.02s.14-.03.2-.07c.06-.04.11-.09.16-.17ZM36.76,6.95c.04-.07.06-.13.07-.19,0-.06,0-.13-.02-.19-.02-.06-.06-.12-.11-.17-.05-.06-.13-.12-.24-.18l-.35-.21-.5.84.39.23c.1.06.19.1.26.11s.14.01.21,0c.06-.02.12-.04.17-.08.05-.04.09-.09.13-.15ZM38.55,11.34s-.07.08-.1.11c-.03.03-.06.05-.08.06-.02.01-.05.02-.07.02-.02,0-.04,0-.05-.02l-1.41-1.18c-.05-.04-.08-.09-.09-.15-.01-.06.01-.12.07-.19l2.2-2.63s.03-.02.05-.03c.02,0,.05,0,.07.01.03.01.07.03.11.06.04.03.1.07.16.12.06.05.11.1.15.13s.06.07.08.1c.02.03.03.05.03.07,0,.02,0,.04-.02.05l-1.95,2.33.96.81s.03.03.03.05,0,.04,0,.06c0,.03-.02.06-.04.09s-.05.07-.09.12ZM39.21,12.38s-.03.02-.05.02c-.02,0-.05,0-.07-.02-.03-.02-.06-.04-.1-.07-.04-.03-.09-.08-.14-.14-.05-.06-.1-.11-.13-.15-.03-.04-.05-.08-.07-.11s-.02-.05-.02-.07c0-.02,0-.04.02-.05l2.58-2.46s.03-.02.05-.02c.02,0,.05,0,.07.02s.06.04.1.07c.04.03.09.08.14.14.06.06.1.11.13.15.03.04.05.08.07.11.01.03.02.05.02.07,0,.02,0,.04-.02.05l-2.58,2.46ZM41.74,14.89s-.07.05-.1.07c-.03.02-.06.03-.08.04-.02,0-.05.02-.07.02s-.05,0-.08,0c-.03,0-.08-.02-.15-.06-.07-.03-.14-.08-.22-.13-.08-.06-.17-.13-.25-.21-.09-.08-.17-.18-.26-.3-.16-.22-.27-.45-.34-.67-.07-.22-.08-.45-.04-.66.04-.22.13-.43.27-.64.14-.21.34-.4.6-.59.26-.19.52-.32.77-.39.26-.07.5-.09.73-.06.23.03.45.11.66.25.2.13.39.31.55.53.07.09.12.18.17.28.05.09.08.18.11.27s.05.17.06.25.02.14.01.17c0,.04-.01.07-.02.08,0,.02-.02.04-.04.06s-.04.04-.07.07c-.03.02-.06.05-.11.08-.05.03-.09.06-.12.08-.04.02-.07.03-.09.04-.03,0-.05,0-.07,0-.02,0-.03-.02-.04-.03-.02-.02-.03-.07-.03-.13,0-.06,0-.13-.02-.22s-.03-.18-.07-.28c-.03-.1-.09-.21-.18-.33-.09-.13-.2-.23-.32-.29-.12-.07-.26-.1-.4-.1-.14,0-.29.02-.45.08s-.32.15-.48.27c-.18.13-.32.26-.42.4-.1.14-.17.27-.2.4-.03.13-.03.27,0,.4.03.13.1.26.19.39.09.12.17.21.26.27.09.07.17.12.25.16.08.04.14.07.19.09.05.02.09.04.1.06.01.02.02.03.02.05,0,.01,0,.03-.02.05-.01.02-.04.05-.07.07-.03.03-.07.06-.13.1Z" style="fill: #fff; stroke-width: 0px;"/>
    <path d="M6.93,37.17c-.18.08-.35.11-.52.1-.17-.02-.33-.07-.47-.16-.15-.09-.28-.21-.41-.37-.12-.15-.23-.33-.32-.53-.06-.13-.1-.26-.14-.39s-.05-.24-.07-.34c-.01-.1-.02-.19-.01-.26,0-.07.01-.13.02-.16.01-.04.04-.07.07-.1.04-.03.1-.06.18-.1.05-.02.1-.04.14-.05.04-.01.07-.02.1-.02.03,0,.05,0,.06.01s.03.03.04.05c.01.03.02.07,0,.14,0,.06,0,.14,0,.24,0,.1.01.21.03.33s.06.26.13.41c.04.1.09.18.14.25.05.07.11.12.17.15.06.04.12.06.19.06.07,0,.13,0,.2-.04.08-.03.13-.09.17-.16.03-.07.06-.16.06-.25s.01-.2,0-.32c0-.11-.01-.23-.02-.36,0-.12,0-.24,0-.37,0-.12.03-.24.07-.35.04-.11.1-.21.18-.31.08-.09.19-.17.33-.23.16-.07.32-.1.48-.09.15.01.3.06.43.14.13.08.26.19.37.33.11.14.21.3.29.48.04.09.07.19.1.28.03.1.05.19.06.28.01.09.02.17.02.24,0,.07,0,.12-.01.15,0,.03-.02.05-.03.06,0,.01-.02.03-.04.04-.02.01-.04.03-.07.04-.03.02-.07.03-.11.05-.05.02-.09.04-.13.05-.04.01-.07.02-.09.02s-.05,0-.06,0c-.02,0-.03-.02-.04-.05,0-.02-.01-.06,0-.12,0-.06,0-.13,0-.21,0-.08-.01-.18-.03-.28-.02-.1-.05-.21-.1-.32-.04-.09-.08-.16-.13-.21-.05-.06-.1-.1-.15-.13s-.1-.04-.16-.04c-.06,0-.11.01-.16.03-.08.03-.13.09-.16.16-.03.07-.06.16-.06.25,0,.1,0,.21,0,.32,0,.12.01.24.02.36,0,.12,0,.25,0,.37,0,.12-.03.24-.07.35-.04.11-.1.21-.18.31-.08.09-.19.17-.33.23ZM10.94,38.86s-.08.06-.12.08c-.04.02-.07.03-.09.04s-.05,0-.07,0c-.02,0-.03-.02-.05-.03l-.63-.86-2.41,1.78s-.03.02-.05.01c-.02,0-.05-.01-.07-.03-.03-.02-.06-.05-.1-.09-.04-.04-.08-.1-.13-.16-.05-.07-.09-.12-.12-.17-.03-.05-.05-.09-.06-.12-.01-.03-.02-.06-.01-.08,0-.02.01-.04.03-.05l2.41-1.78-.63-.86s-.02-.04-.02-.05,0-.04.02-.06c.01-.02.03-.05.06-.08.03-.03.07-.06.11-.09.05-.03.09-.06.12-.08.04-.02.07-.03.09-.04s.05,0,.07,0c.02,0,.03.02.05.04l1.78,2.41s.02.03.02.05c0,.02,0,.04-.02.06-.01.02-.03.05-.06.08-.03.03-.07.06-.11.09ZM11.28,43.36c-.03.07-.05.12-.07.15-.02.04-.05.05-.08.05s-.07-.02-.12-.06c-.05-.04-.11-.09-.19-.16-.08-.08-.15-.13-.19-.18-.05-.04-.08-.08-.09-.11-.02-.03-.03-.05-.03-.07,0-.02,0-.04.02-.07l.29-.75-1.18-1.07-.69.36s-.05.02-.07.03c-.02,0-.05,0-.08-.01-.03-.01-.07-.04-.11-.08-.05-.04-.1-.09-.17-.15-.07-.07-.13-.12-.17-.17-.04-.04-.06-.08-.06-.11,0-.03.01-.06.05-.09.03-.02.08-.05.14-.09l3.19-1.57s.06-.02.09-.03c.03,0,.06,0,.09.02.03.02.08.05.13.09.05.04.12.1.2.18.1.09.17.16.23.21.06.05.09.1.12.13.02.04.04.07.04.1,0,.03,0,.06-.02.1l-1.24,3.33ZM11.67,40.02h0s-1.51.77-1.51.77l.89.81.62-1.58ZM15.77,42.43s-.06.09-.08.12c-.03.03-.05.05-.07.07s-.04.02-.06.02c-.02,0-.04,0-.05-.01l-.91-.56-1.58,2.55s-.02.03-.05.03c-.02,0-.05,0-.08,0-.03,0-.07-.03-.12-.05-.05-.02-.11-.06-.18-.1-.07-.04-.13-.08-.17-.12-.04-.03-.08-.06-.1-.09-.02-.03-.04-.05-.04-.07,0-.02,0-.04,0-.05l1.58-2.55-.91-.56s-.03-.03-.04-.04c0-.02,0-.04,0-.07,0-.03.01-.06.03-.09.02-.04.04-.08.07-.13.03-.05.06-.09.08-.12.03-.03.05-.05.07-.07.02-.01.04-.02.06-.02.02,0,.04,0,.06.02l2.55,1.58s.03.03.04.04c0,.02.01.04,0,.07,0,.03-.01.06-.03.1-.02.04-.04.08-.07.13ZM17.3,46.37c-.02.05-.04.09-.06.13-.02.03-.04.06-.06.08-.02.02-.04.03-.06.03-.02,0-.04,0-.06,0l-1.99-.79c-.07-.03-.12-.07-.15-.12-.03-.05-.03-.12,0-.2l1.2-3.02c.03-.08.08-.13.14-.14.06-.02.12-.01.19.01l1.97.78s.03.02.04.03.02.03.02.06c0,.03,0,.06-.01.09,0,.04-.02.08-.05.13-.02.05-.04.09-.06.12-.02.03-.04.06-.06.08-.02.02-.04.03-.06.03-.02,0-.04,0-.05,0l-1.41-.56-.33.85,1.19.47s.03.02.05.03c.01.01.02.04.02.06,0,.02,0,.06-.01.09,0,.04-.02.08-.04.13-.02.05-.04.09-.06.13-.02.03-.04.06-.06.07-.02.02-.04.03-.06.03-.02,0-.04,0-.06,0l-1.19-.47-.39.98,1.42.57s.03.02.05.03c.01.02.02.04.02.06,0,.03,0,.06-.01.09,0,.04-.02.08-.04.13ZM24.06,45.94c-.03.31-.11.58-.22.81-.11.23-.27.42-.46.57-.19.15-.42.26-.68.32-.26.06-.56.07-.9.04-.33-.04-.61-.1-.85-.21-.24-.1-.43-.24-.57-.41-.15-.17-.25-.38-.3-.63-.06-.25-.07-.53-.03-.86.03-.3.11-.56.22-.79.11-.23.27-.42.46-.57.19-.15.42-.25.68-.32.26-.06.56-.07.9-.04.32.04.6.1.84.2s.43.24.58.41c.15.17.25.38.31.63.06.24.07.53.03.85ZM23.15,45.88c.02-.19.02-.37,0-.54-.02-.16-.06-.31-.13-.43-.07-.12-.17-.22-.31-.3-.13-.08-.3-.13-.51-.15-.21-.02-.39,0-.54.05-.15.05-.27.13-.37.24s-.18.24-.23.39c-.05.15-.09.31-.11.49-.02.2-.02.39,0,.55.02.17.06.31.13.43.07.12.17.22.3.3.13.08.31.13.52.15.21.02.39,0,.54-.05.15-.05.27-.13.37-.24.1-.11.18-.24.23-.39.05-.15.09-.32.11-.5ZM27.2,44.19c0,.06,0,.11,0,.14,0,.04,0,.07-.02.1-.01.02-.02.04-.04.05-.02.01-.03.02-.05.02l-1.39.1.07,1,1.3-.09s.04,0,.05.01c.02,0,.03.02.05.05s.02.05.03.09c0,.04.01.09.02.14,0,.06,0,.11,0,.14,0,.04,0,.07-.02.1,0,.03-.02.04-.04.06-.01.01-.03.02-.05.02l-1.3.1.1,1.38s0,.04-.02.06-.03.03-.07.04c-.03.01-.08.02-.13.03-.05.01-.12.02-.21.02-.08,0-.15,0-.21,0s-.1,0-.13-.02c-.03,0-.06-.02-.07-.03s-.02-.03-.02-.05l-.25-3.37c0-.08.01-.15.06-.19.05-.04.11-.06.18-.07l2-.15s.04,0,.05.01c.02.01.03.03.05.05.01.02.02.05.03.09,0,.04.01.09.02.15ZM31.9,42.99c.02.05.03.1.03.14,0,.04,0,.07,0,.1,0,.03-.01.05-.02.06-.01.01-.03.03-.05.03l-1.02.31.87,2.87s0,.04,0,.06c0,.02-.03.04-.06.06-.03.02-.07.04-.12.06-.05.02-.12.05-.2.07s-.15.04-.2.05c-.05.01-.1.02-.13.02-.03,0-.06,0-.08-.02s-.03-.02-.04-.04l-.87-2.87-1.02.31s-.04,0-.06,0c-.02,0-.04-.02-.05-.04-.02-.02-.03-.05-.05-.08-.02-.04-.03-.08-.05-.13-.02-.06-.03-.1-.03-.14,0-.04,0-.07,0-.1,0-.03.01-.05.02-.06.01-.01.03-.02.05-.03l2.87-.87s.04,0,.06,0c.02,0,.04.02.05.04.02.02.03.05.05.08.02.04.03.08.05.14ZM35.87,44.5s.04.09.05.13c.01.04.02.07.02.09,0,.03,0,.05-.01.06-.01.02-.02.03-.04.04l-1.91.95c-.07.03-.13.04-.19.03s-.11-.05-.15-.13l-1.44-2.91c-.04-.08-.04-.14-.02-.2.03-.05.07-.1.14-.13l1.9-.94s.04-.01.05-.01c.02,0,.04.01.06.03.02.02.04.04.06.07.02.03.05.07.07.12.02.05.04.09.05.13.01.04.02.07.02.09,0,.03,0,.05-.01.06,0,.02-.02.03-.04.04l-1.36.68.4.81,1.15-.57s.04-.01.06,0c.02,0,.04.01.06.02.02.01.04.04.06.07.02.03.04.07.07.12.02.05.04.09.05.13.01.04.02.07.02.09s0,.04-.02.06c0,.02-.02.03-.04.04l-1.15.57.47.94,1.37-.68s.04-.01.06-.01c.02,0,.04.01.06.03.02.02.04.04.06.07.02.03.05.07.07.12ZM39.3,42.08c.07.03.12.06.16.08.03.02.05.05.04.09,0,.03-.04.07-.09.12-.05.05-.13.11-.22.18-.08.06-.15.11-.2.14-.05.03-.09.06-.12.07s-.06.02-.08.02c-.02,0-.04-.01-.07-.02l-1.45-.59.17,1.55s0,.05,0,.07c0,.02-.02.05-.04.07-.02.03-.06.06-.1.1-.05.04-.11.09-.19.15-.09.07-.16.12-.22.15-.05.03-.09.05-.12.04-.03,0-.05-.03-.07-.07-.01-.04-.02-.1-.03-.18l-.16-1.91-1.68-.65c-.07-.03-.13-.06-.16-.08-.04-.02-.05-.05-.04-.08,0-.03.04-.07.09-.11.05-.04.13-.1.23-.18.08-.06.15-.11.2-.14.05-.03.09-.06.13-.07.03-.01.06-.02.08-.02.02,0,.04.01.07.02l1.34.54-.16-1.42s0-.05,0-.07c0-.02.01-.04.03-.07.02-.03.05-.06.09-.09.04-.04.1-.08.18-.14.09-.07.16-.12.21-.15.05-.03.1-.05.13-.05.03,0,.06.02.07.06.01.04.03.1.04.18l.16,1.78,1.79.7ZM42.42,38.62c.07.02.12.05.16.07.03.02.05.05.05.08s-.02.07-.05.12c-.04.05-.09.12-.16.2-.07.08-.13.15-.17.19-.04.05-.08.08-.11.1-.03.02-.05.03-.07.03-.02,0-.04,0-.07-.01l-.76-.27-1.04,1.22.38.68s.02.05.03.07,0,.05-.01.08c-.01.03-.04.07-.07.12-.03.05-.08.11-.14.18-.06.08-.12.14-.16.17-.04.04-.08.06-.11.06-.03,0-.06-.01-.09-.04s-.06-.08-.09-.14l-1.67-3.14s-.03-.06-.03-.09c0-.03,0-.06.02-.09.02-.04.05-.08.09-.13.04-.05.1-.12.17-.21.08-.1.15-.18.2-.23.05-.06.1-.1.13-.12.04-.03.07-.04.1-.04.03,0,.06,0,.1.02l3.37,1.14ZM39.07,38.34h0s.82,1.49.82,1.49l.78-.92-1.6-.57ZM43.38,35.01c.17.09.31.2.4.35.09.14.15.3.17.47.02.17.01.35-.03.55-.04.19-.11.39-.21.58-.07.13-.14.25-.21.35-.08.1-.15.19-.22.26-.07.07-.13.13-.19.17-.06.04-.11.07-.14.08-.03.01-.08.02-.12,0-.05-.01-.11-.04-.19-.08-.05-.03-.1-.05-.13-.07-.03-.02-.06-.04-.08-.06s-.03-.04-.03-.06c0-.02,0-.04.01-.06.01-.03.05-.06.1-.09.05-.04.12-.08.19-.14.07-.06.15-.14.24-.23.08-.09.16-.21.24-.35.05-.09.08-.18.1-.27.02-.08.02-.16.01-.23,0-.07-.03-.13-.07-.19-.04-.05-.09-.1-.16-.13-.07-.04-.15-.05-.23-.03-.08.02-.16.06-.24.11-.08.05-.16.12-.25.2-.08.08-.17.15-.27.23-.09.08-.19.16-.29.23-.1.07-.21.12-.32.16-.11.04-.23.06-.35.05-.12,0-.25-.04-.39-.11-.16-.08-.28-.19-.37-.31-.09-.13-.14-.27-.16-.43-.02-.15-.01-.32.03-.49.04-.18.1-.35.19-.52.05-.09.1-.18.16-.26.06-.08.12-.16.18-.23.06-.07.12-.13.18-.17.06-.05.1-.08.13-.09.03-.01.05-.02.06-.02.02,0,.03,0,.06,0,.02,0,.05.01.08.03s.07.03.11.05c.05.03.09.05.12.07.03.02.06.04.08.06.02.02.03.04.03.06,0,.02,0,.04-.01.06-.01.02-.04.05-.09.08s-.1.08-.17.13c-.06.05-.13.12-.2.2-.07.08-.13.17-.19.28-.04.08-.07.16-.09.23-.01.07-.02.14,0,.19,0,.06.03.11.07.15.03.04.08.08.13.1.07.04.15.05.23.03.08-.02.16-.05.24-.11.08-.06.17-.12.25-.2.09-.08.18-.16.27-.24.09-.08.19-.15.29-.23.1-.07.21-.13.32-.16.11-.04.23-.06.35-.05s.25.04.38.11Z" style="fill: #fff; stroke-width: 0px;"/>
    <path d="M45.92,22.43l.48,1.47s.02.02.03.02h1.54s.05.04.02.06l-1.25.91s-.02.03-.01.04l.48,1.47s-.03.06-.06.04l-1.25-.91s-.03,0-.04,0l-1.25.91s-.07,0-.06-.04l.48-1.47s0-.03-.01-.04l-1.25-.91s-.01-.06.02-.06h1.54s.03-.01.03-.02l.48-1.47s.06-.03.07,0Z" style="fill: #fff; stroke-width: 0px;"/>
    <path d="M4.01,22.43l.48,1.47s.02.02.03.02h1.54s.05.04.02.06l-1.25.91s-.02.03-.01.04l.48,1.47s-.03.06-.06.04l-1.25-.91s-.03,0-.04,0l-1.25.91s-.07,0-.06-.04l.48-1.47s0-.03-.01-.04l-1.25-.91s-.01-.06.02-.06h1.54s.03-.01.03-.02l.48-1.47s.06-.03.07,0Z" style="fill: #fff; stroke-width: 0px;"/>
    <path d="M24.85,9.11l3.4,10.46s.04.05.07.05h10.99c.07,0,.1.09.04.14l-8.89,6.46s-.04.05-.03.08l3.4,10.46c.02.07-.06.13-.12.08l-8.89-6.46s-.06-.02-.09,0l-8.89,6.46c-.06.04-.14-.01-.12-.08l3.4-10.46s0-.06-.03-.08l-8.89-6.46c-.06-.04-.03-.14.04-.14h10.99s.06-.02.07-.05l3.4-10.46c.02-.07.12-.07.14,0ZM24.89,10.02l.04,13.69c0,.07.09.1.13.05l3.01-4.13s.02-.05.01-.07l-3.04-9.56c-.03-.08-.15-.06-.15.02ZM11.19,19.85l13.04,4.2c.07.02.13-.05.09-.11l-3-4.14s-.04-.03-.06-.03l-10.03-.06c-.09,0-.1.12-.02.15ZM16.29,35.86l8.02-11.1c.04-.06-.01-.14-.08-.12l-4.86,1.58s-.04.03-.05.05l-3.16,9.52c-.03.08.08.14.13.07ZM33.11,36.09l-8.08-11.06c-.04-.06-.13-.03-.14.04v5.11s0,.05.03.06l8.08,5.95c.07.05.15-.04.1-.11ZM38.49,20.12l-13.01,4.27c-.07.02-.07.12,0,.14l4.86,1.58s.05,0,.07-.01l8.15-5.85c.07-.05.01-.16-.07-.13Z" style="fill: #fff; stroke-width: 0px;"/>
  </g>
</svg>