<?xml version="1.0" encoding="UTF-8"?>
<svg id="Capa_1" data-name="Capa 1" xmlns="http://www.w3.org/2000/svg" width="170" height="60" viewBox="0 0 170 60">
  <path d="M5.05,30c0-11.04,35.8-20,79.95-20s79.95,8.96,79.95,20-35.8,20-79.95,20S5.05,41.04,5.05,30h0Z" style="fill: #0382c7; fill-rule: evenodd; stroke-width: 0px;"/>
  <path d="M132.53,34.01c.03-.12.07-.27.09-.43h10.8c1.23-4.87,1.79-7.12-.28-9.05-1.36-1.28-3.69-1.8-6.28-1.8-3.51,0-5.69.51-7.47,1.75-1.97,1.37-3.09,3.55-3.93,6.81-1.19,4.53-1.2,6.95.33,8.71,1.05,1.21,3.03,2.13,6.39,2.15,3.95,0,5.92-.59,7.31-1.53,1.87-1.25,2.83-2.65,3.51-5.4h-7.27c-.17.69-.31,1.75-.75,2.29-.32.4-.8.72-1.67.68-.57-.03-1.03-.23-1.21-.59-.21-.4-.15-.92-.08-1.27.19-.99.33-1.41.53-2.31h-.03ZM136.09,26.69c1.12,0,1.45.67,1.32,1.49-.07.4-.25,1.17-.48,1.93h-3.48c.21-.75.45-1.56.63-2.01.32-.83.87-1.4,2-1.4h.01ZM40.48,31.95l.12-.56h13.91c1.59-6.27,2.29-9.16-.37-11.65-1.76-1.65-4.75-2.31-8.08-2.31-6.01,0-12.24,1.47-14.05,8.69-.27,1.07-1.19,4.24-1.37,5.08-.67,3.03-.93,5.79.35,7.69,1.6,2.4,4.59,3.4,9.05,3.47,5.07.08,7.6-.76,9.4-1.97,2.4-1.63,3.64-3.41,4.52-6.93h-9.33c-.23.88-.4,2.25-.96,2.95-.4.51-1.03.92-2.17.87-.75-.03-1.25-.25-1.55-.73-.28-.45-.23-1.16-.13-1.6.24-1.27.43-1.88.69-3.03h0v.04ZM45.08,22.51c1.45,0,1.87.85,1.71,1.92-.08.47-.29,1.45-.55,2.33h-4.52c.27-.97.53-1.85.75-2.45.4-1.05,1.13-1.81,2.59-1.81h.03ZM118.6,17.29h7.77l-6.05,24.36h-7.81l6.09-24.36h0ZM113.68,23.31l-4.59,18.33h-7.81l4.59-18.33h7.81ZM104.8,17.29l-.97,3.92h-1.43c-1.03,0-1.57.32-1.79,1.13l-.24.97h2.93l-1.07,4.28h-2.93l-3.51,14.05h-7.81l3.51-14.05h-2.47l1.07-4.28h2.47l.48-1.92c.56-2.28,1.96-4.11,5.95-4.11,0,0,5.81,0,5.81,0Z" style="fill: #fff; fill-rule: evenodd; stroke-width: 0px;"/>
  <path d="M31.23,22.15c2.53,0,3.6.81,3.15,2.8h-2.85c.08-.36.11-.6,0-.76-.09-.16-.35-.24-.65-.24-.39,0-.75.13-.85.59-.15.63.07.85,1.41,1.45,1.51.68,2.49,1.4,2.03,3.25-.48,1.92-2.04,2.61-4.25,2.61-1.13,0-2.25-.17-2.83-.71-.57-.52-.75-1.17-.45-2.39h2.91l-.07.24c-.21.83.17,1.05.73,1.04.64,0,.85-.39.89-.72.11-.63-.19-.89-2.05-1.87-1.29-.67-1.6-1.6-1.24-2.96.44-1.72,2.15-2.36,4.12-2.36h.01Z" style="fill: #1e71b8; fill-rule: evenodd; stroke-width: 0px;"/>
  <path d="M12.69,21.45h3.16l-2.35,9.37h-3.16l2.33-9.37h.01ZM17.77,21.45h4.01c1.23,0,2.17.08,2.8.75.4.43.56.99.35,1.91-.32,1.32-1.07,1.8-2.11,2.03v.05c.89.24,1.28.87,1.08,1.81-.17.79-.27,1.17-.36,1.67-.08.41-.04.8.15,1.16h-3.33c-.08-.63.16-1.56.43-2.73.17-.75-.12-.92-.53-.92h-.75l-.92,3.65h-3.16l2.35-9.37h0ZM19.95,25.41h.47c.85,0,1.19-.4,1.36-1.08.15-.61-.2-.96-.56-.96h-.76l-.51,2.04h0ZM30.48,21.33c2.53,0,3.6.81,3.15,2.8h-2.85c.08-.36.12-.6,0-.76-.09-.16-.35-.24-.65-.24-.37,0-.75.13-.85.59-.15.63.07.85,1.41,1.45,1.51.68,2.49,1.4,2.03,3.25-.48,1.92-2.04,2.61-4.25,2.61-1.13,0-2.25-.17-2.83-.69s-.75-1.19-.45-2.39h2.91s-.04.15-.07.24c-.21.83.17,1.05.73,1.04.64,0,.85-.4.89-.72.11-.63-.19-.89-2.05-1.87-1.29-.67-1.6-1.6-1.24-2.96.44-1.72,2.15-2.36,4.12-2.36h.01ZM56.37,32.56l18.64-8.68-1.16,5.69,14.21-5.79-19.04,11.92,1.05-6.25-13.72,3.11h.01Z" style="fill: #fff22d; fill-rule: evenodd; stroke-width: 0px;"/>
  <path d="M115.11,17.29l-1.05,4.56h-7.81l1.15-4.56h7.73-.01Z" style="fill: #fff; fill-rule: evenodd; stroke-width: 0px;"/>
</svg>