<?xml version="1.0" encoding="UTF-8"?>
<svg id="Capa_1" data-name="Capa 1" xmlns="http://www.w3.org/2000/svg" width="100" height="100" viewBox="0 0 100 100">
  <polygon points="66.55 99.9 49.7 96.71 32.85 99.9 32.85 84.49 50 88.27 66.55 84.49 66.55 99.9" style="fill: #3a78a1; stroke-width: 0px;"/>
  <path d="M31.17,79.82c5.62,2.98,12.03,4.67,18.83,4.67s13.21-1.69,18.83-4.67H31.17Z" style="fill: #3a78a1; stroke-width: 0px;"/>
  <path d="M87.65,58.56c1.7-4.46,2.65-9.31,2.65-14.37,0-22.26-18.04-40.3-40.3-40.3S9.7,21.93,9.7,44.19c0,5.06.94,9.9,2.65,14.37h75.3Z" style="fill: #3a78a1; stroke-width: 0px;"/>
  <g>
    <path d="M73.11,79.82c-6.66,4.33-14.59,6.86-23.11,6.86s-16.46-2.53-23.11-6.86h-2.81c7.28,5.31,16.24,8.46,25.92,8.46s18.64-3.15,25.92-8.46h-2.81Z" style="fill: #3a78a1; stroke-width: 0px;"/>
    <path d="M10.01,58.56c-1.62-4.49-2.51-9.33-2.51-14.37C7.51,20.76,26.57,1.69,50,1.69s42.49,19.06,42.49,42.49c0,5.04-.89,9.88-2.51,14.37h1.68c1.56-4.51,2.42-9.34,2.42-14.37C94.09,19.88,74.31.1,50,.1S5.91,19.88,5.91,44.19c0,5.03.86,9.86,2.42,14.37h1.68Z" style="fill: #3a78a1; stroke-width: 0px;"/>
  </g>
  <path d="M20.12,58.56c-2.1-4.35-3.28-9.22-3.28-14.37,0-18.28,14.88-33.16,33.16-33.16s33.16,14.87,33.16,33.16c0,5.14-1.18,10.02-3.28,14.37h1.75c2-4.38,3.12-9.25,3.12-14.37,0-19.16-15.59-34.75-34.75-34.75S15.25,25.02,15.25,44.19c0,5.12,1.12,9.99,3.12,14.37h1.75Z" style="fill: #fff; stroke-width: 0px;"/>
  <ellipse cx="50" cy="58.49" rx="46.94" ry="1.01" style="fill: #3a78a1; stroke-width: 0px;"/>
  <path d="M83.69,79.23c0,.7-15.09,1.28-33.69,1.28s-33.69-.57-33.69-1.28,15.09-1.28,33.69-1.28,33.69.57,33.69,1.28Z" style="fill: #3a78a1; stroke-width: 0px;"/>
  <g>
    <polygon points="37.16 21.93 37.82 23.14 39.03 23.8 37.82 24.46 37.16 25.66 36.5 24.46 35.3 23.8 36.5 23.14 37.16 21.93" style="fill: #fff; stroke-width: 0px;"/>
    <polygon points="43.58 21.93 44.24 23.14 45.45 23.8 44.24 24.46 43.58 25.66 42.92 24.46 41.72 23.8 42.92 23.14 43.58 21.93" style="fill: #fff; stroke-width: 0px;"/>
    <polygon points="50 21.93 50.66 23.14 51.87 23.8 50.66 24.46 50 25.66 49.34 24.46 48.13 23.8 49.34 23.14 50 21.93" style="fill: #fff; stroke-width: 0px;"/>
    <polygon points="56.42 21.93 57.08 23.14 58.28 23.8 57.08 24.46 56.42 25.66 55.76 24.46 54.55 23.8 55.76 23.14 56.42 21.93" style="fill: #fff; stroke-width: 0px;"/>
    <polygon points="62.84 21.93 63.5 23.14 64.7 23.8 63.5 24.46 62.84 25.66 62.18 24.46 60.97 23.8 62.18 23.14 62.84 21.93" style="fill: #fff; stroke-width: 0px;"/>
  </g>
  <text transform="translate(27.45 40.84)" style="fill: #fff; font-family: Volkhov-Regular, Volkhov; font-size: 8.7px;"><tspan x="0" y="0" style="letter-spacing: -.05em;">EN</tspan><tspan x="11.86" y="0" style="letter-spacing: -.06em;">R</tspan><tspan x="17.39" y="0" style="letter-spacing: -.06em;">O</tspan><tspan x="23.55" y="0" style="letter-spacing: -.05em;">LLED</tspan><tspan x="8.05" y="8.72" style="letter-spacing: -.08em;">A</tspan><tspan x="13.61" y="8.72" style="letter-spacing: -.05em;">GENT</tspan></text>
  <text transform="translate(35.22 76.4)" style="fill: #3a78a1; font-family: Volkhov-Regular, Volkhov; font-size: 22.57px; letter-spacing: -.05em;"><tspan x="0" y="0">EA</tspan></text>
</svg>