<?xml version="1.0" encoding="UTF-8"?>
<svg id="Capa_1" data-name="Capa 1" xmlns="http://www.w3.org/2000/svg" width="170" height="60" viewBox="0 0 170 60">
  <path d="M114.46,30.06c.05,16.33-13.37,29.47-29.52,29.41-16.45-.06-29.68-13.56-29.39-30.04C55.84,13.41,69.19-.03,86.13.55c15.58.54,28.46,13.5,28.33,29.51ZM56.16,29.73c-.17,15.89,12.67,29.09,28.8,29.13,15.79.04,28.69-12.66,28.91-28.43.23-16.1-12.71-29.17-28.65-29.29-15.89-.12-28.93,12.69-29.07,28.59h0Z" style="fill: #fff; stroke-width: 0px;"/>
  <path d="M56.16,29.73c.14-15.91,13.17-28.71,29.07-28.59,15.94.12,28.88,13.19,28.65,29.29-.23,15.77-13.13,28.47-28.91,28.43-16.13-.04-28.98-13.24-28.8-29.13h-.01ZM84.87,8.31c-11.82.02-21.54,9.7-21.27,21.82.25,11.4,9.57,20.87,21.45,20.79,11.73-.07,21.15-9.59,21.15-21.28s-9.6-21.33-21.33-21.33ZM99.53,51.36h-.05v-.72c0-.32.11-.39.41-.28.44.16.87.34,1.31.49.31.1.57,0,.62-.24.07-.29-.1-.45-.34-.55-.48-.19-.96-.38-1.45-.57-.5-.19-.51-.2-.53-.74-.02-.49-.05-.97-.08-1.46-.01-.21-.14-.35-.36-.36-.24,0-.36.14-.39.36-.02.12-.02.25-.01.37.01.33.04.66.05,1,.01.35-.1.43-.44.31-.34-.13-.67-.28-1.01-.41-.29-.11-.56-.12-.78.17-.06.08-.16.12-.25.17-.82.41-1.69.73-2.43,1.25-.39.27-.73.42-1.17.5-.45.08-.88.24-1.32.37-.5.15-1,.29-1.48.47-.12.05-.24.27-.24.4.01.21.22.29.43.25.22-.04.44-.11.66-.16.38-.1.48-.04.58.34.26.91.51,1.82.78,2.72.03.12.08.27.16.32.14.09.35.18.49.14.12-.04.23-.24.27-.39.03-.13-.03-.28-.07-.42-.25-.88-.5-1.76-.76-2.63-.11-.39-.07-.47.31-.58.34-.1.72-.12.95-.47.02-.03.16,0,.2.03.07.07.11.17.16.26.44.86.87,1.72,1.31,2.58.25.48.48.55.96.31.65-.33,1.3-.65,1.94-.99.13-.07.28-.13.36-.24.07-.1.13-.3.08-.38-.07-.1-.25-.17-.38-.17s-.27.09-.4.16c-.46.23-.93.47-1.38.71-.22.12-.39.1-.51-.14-.07-.16-.16-.31-.24-.47-.19-.39-.15-.48.24-.67.43-.21.86-.42,1.27-.65.18-.1.36-.25.23-.5s-.35-.18-.55-.09c-.37.18-.74.37-1.11.56-.58.31-.59.31-.92-.27-.23-.41-.21-.49.22-.72.54-.29,1.09-.56,1.61-.88.18-.11.33-.15.52-.07.34.13.67.29,1.02.39.47.13.61.41.59.87-.02.51.03,1.02.08,1.52.02.24.15.47.43.44.28-.03.39-.24.39-.51v-.72h.02ZM78.86,51.91c.1-.07.27-.13.3-.23.03-.12-.05-.29-.14-.39-.08-.09-.23-.13-.36-.17-.86-.25-1.66-.72-2.58-.78-.08,0-.15-.1-.22-.15-.13-.1-.24-.23-.38-.31-.44-.25-.9-.48-1.35-.71-.42-.22-.85-.43-1.28-.63-.17-.08-.39-.09-.49.12-.1.22-.02.41.18.53.19.11.38.21.58.31.32.17.35.27.18.59-.38.74-.76,1.47-1.13,2.21-.1.19-.19.39-.26.6-.07.22-.01.41.21.53s.41.03.55-.15c.11-.15.2-.31.29-.48.4-.78.8-1.55,1.18-2.33.13-.27.3-.3.55-.17s.5.26.77.33c.29.08.31.21.22.45-.34.96-.66,1.92-.99,2.88-.14.41-.07.62.34.79.36.15.74.27,1.11.4.44.15.88.3,1.33.44.2.06.41.05.5-.18.1-.26-.08-.38-.28-.47-.06-.03-.12-.04-.18-.06-.53-.18-1.06-.37-1.59-.55-.22-.07-.29-.22-.23-.43.07-.22.15-.43.22-.65.09-.24.23-.31.48-.22.5.18,1,.35,1.5.51.2.06.4.06.49-.18.08-.23-.08-.34-.26-.43-.06-.03-.11-.05-.17-.07-.44-.15-.89-.29-1.32-.47-.13-.05-.29-.21-.29-.33-.02-.38.23-.81.43-.83.07,0,.14,0,.21.03.18.05.35.12.53.18.43.15.86.29,1.35.45v.02ZM80.28,54.08c0,1.22.47,2.02,1.34,2.32.88.3,2.03.28,2.69-.55.36-.44.53-.96.57-1.52.06-.92-.15-1.75-1.01-2.22-.89-.48-1.84-.55-2.71.08-.68.49-.85,1.24-.88,1.89ZM111.58,32.75s.06-.05.08-.07c-.01-.08-.01-.16-.03-.23-.11-.37-.21-.74-.34-1.1-.12-.32-.02-.54.24-.72.31-.21.61-.44.9-.67.07-.05.1-.14.15-.21-.08-.03-.16-.09-.24-.1-.38-.01-.77-.01-1.15,0-.27,0-.45-.08-.53-.36-.1-.37-.24-.73-.37-1.09-.04-.11-.11-.2-.16-.3h-.09c-.07.17-.14.34-.2.51-.1.28-.19.57-.28.86-.08.28-.25.4-.55.39-.38-.02-.77,0-1.15,0-.08,0-.16.06-.24.1.05.07.08.16.14.21.31.25.62.49.94.72.24.16.29.36.21.62-.12.38-.24.75-.35,1.13-.02.08,0,.18,0,.26.09-.02.2-.02.28-.07.33-.23.66-.46.98-.71.18-.14.35-.15.54-.01.18.14.36.27.55.4.22.16.45.3.68.46v-.02ZM58.51,32.68s.05.04.08.05c.08-.04.16-.08.23-.13.33-.23.67-.46.99-.7.2-.15.37-.15.56,0,.23.18.47.35.7.51.16.12.33.22.58.39-.02-.2,0-.3-.04-.39-.11-.36-.2-.72-.34-1.07-.12-.31-.04-.51.22-.69.3-.2.59-.42.87-.65.08-.06.13-.17.2-.25-.11-.04-.22-.1-.33-.11-.35-.01-.71-.01-1.06,0-.3,0-.49-.1-.57-.4-.1-.37-.23-.73-.35-1.09-.03-.09-.09-.16-.18-.31-.08.17-.14.26-.18.36-.13.36-.26.72-.37,1.09-.07.26-.22.35-.47.35h-1.15c-.12,0-.23.06-.43.11.47.35.84.65,1.23.92.22.16.29.33.2.59-.12.35-.23.71-.33,1.07-.03.11-.04.23-.07.35h0ZM104.37,42.6h.19c.22,0,.39-.07.44-.3.05-.24-.08-.41-.29-.45-.24-.05-.53-.09-.75,0-.86.3-1.29,1.01-1.42,1.85-.14.93.79,1.58,1.64,1.19.31-.14.58-.39.86-.6.22-.16.42-.34.65-.48.42-.24.86,0,.89.5.04.69-.55,1.23-1.24,1.14-.08,0-.16-.03-.25-.03-.23-.02-.43.06-.49.29-.07.24.1.44.3.47.33.06.7.12.99,0,.81-.3,1.26-.96,1.44-1.78.13-.59-.08-1.08-.6-1.43-.51-.34-1.01-.23-1.48.08-.12.08-.23.17-.35.26-.29.23-.57.49-.89.67-.14.08-.42.1-.54,0-.13-.1-.21-.36-.19-.54.06-.55.5-.88,1.06-.86h.03ZM64.46,46.51c.24-.06.45-.09.64-.17.66-.31.89-.94.64-1.68-.14-.43-.3-.86-.43-1.3-.07-.23-.04-.46.18-.61.23-.16.45-.08.66.07.44.33.56.75.36,1.27-.03.09-.1.18-.09.26.02.15.06.36.16.42.11.06.33.03.45-.05.25-.16.35-.42.36-.72.03-.76-.62-1.75-1.36-2.03-.86-.34-1.71.32-1.6,1.23.03.23.1.47.17.69.1.33.24.64.33.97.06.24.01.48-.21.64-.21.16-.43.17-.67.06-.6-.27-.85-.95-.54-1.53.04-.07.08-.14.12-.22.08-.21.08-.41-.13-.55-.2-.13-.38-.04-.53.12-.24.25-.37.55-.36.9,0,.86.47,1.48,1.14,1.96.21.15.49.2.72.28h-.01ZM72.07,48.36c.02-.5-.14-.79-.46-.82-.24-.02-.51.04-.73.15-.51.25-1,.55-1.49.83-.58.33-1.16.65-1.73.98-.31.18-.39.39-.25.64s.35.28.67.11c.15-.08.3-.15.44-.24.22-.14.41-.11.6.05.33.27.65.54.99.81.18.14.21.31.13.52-.08.22-.16.46-.16.69,0,.14.11.36.23.41s.34,0,.47-.09c.1-.07.16-.24.2-.37.24-.78.48-1.57.71-2.35.15-.49.29-.97.4-1.32h-.02ZM97.48,11.03c.78-.02,1.31-.79,1-1.49-.11-.26-.06-.36.2-.46.53-.2.82-.77.58-1.25-.13-.26-.38-.49-.62-.66-.34-.24-.74-.42-1.1-.63-.5-.29-.72-.24-1,.27-.47.84-.93,1.69-1.39,2.53-.15.28-.11.51.16.67.53.31,1.07.6,1.61.87.17.09.37.11.56.16h0ZM101.13,45.2c-.49,0-.81.34-.75.75.03.19.1.38.18.56.31.77.62,1.54.94,2.3.15.35.29.71.46,1.05.11.24.32.33.57.22.26-.11.28-.33.19-.58-.07-.18-.14-.37-.22-.55-.09-.21-.06-.38.11-.53.29-.28.58-.56.87-.85.2-.2.41-.25.67-.12.21.1.44.2.67.22.13,0,.33-.11.41-.23.11-.17.04-.36-.14-.48-.12-.08-.24-.16-.38-.22-.9-.41-1.8-.81-2.7-1.2-.32-.14-.65-.26-.89-.35h0ZM63.91,16.34s.02-.09.04-.13c.15-.01.3-.04.44-.03.7.03,1.41.08,2.11.11.2,0,.42-.02.61-.08.32-.11.39-.45.16-.7-.07-.08-.15-.15-.23-.21-.82-.59-1.65-1.19-2.47-1.78-.2-.15-.41-.24-.6,0-.18.25,0,.42.17.58.04.04.08.06.13.09.45.33.91.65,1.36.99.08.06.12.17.18.26-.1.03-.21.08-.31.09-.09.01-.19,0-.28-.01-.75-.03-1.49-.07-2.24-.1-.26-.01-.51.02-.61.31-.11.3.08.47.28.63.25.2.52.38.78.57.57.41,1.14.83,1.72,1.24.27.19.53.18.64-.01.15-.26,0-.43-.2-.57-.32-.24-.63-.47-.95-.71-.24-.18-.47-.36-.71-.53h-.02ZM80.62,5.05c0-.76-.54-1.26-1.25-1.16-.58.09-1.16.22-1.73.36-.4.1-.51.3-.42.7.18.8.36,1.6.55,2.4.05.23.08.48.18.69.07.14.23.27.38.31.08.02.26-.11.32-.22.06-.1.05-.26.03-.39-.05-.3-.14-.59-.19-.88-.05-.34.06-.47.4-.46.15,0,.32.03.44.11.21.13.39.3.57.47.23.22.44.47.69.68.18.16.41.16.59-.02.17-.17.08-.36-.05-.5-.28-.3-.58-.59-.89-.86-.25-.21-.27-.25-.03-.47s.43-.45.4-.77h.01ZM70.15,12.22c.02-.68-.33-1.19-.79-1.64-.77-.75-1.64-.85-2.48-.32-.98.62-1.3,1.72-.74,2.66.2.34.5.64.81.89.61.49,1.31.57,2.01.19.7-.38,1.17-.95,1.2-1.79h0ZM93.05,8.94c.68,0,1.18-.3,1.38-.84.28-.77.54-1.55.79-2.32.1-.31.01-.52-.21-.6-.23-.08-.41.04-.53.34-.03.08-.05.16-.08.24-.2.61-.39,1.23-.61,1.83-.21.57-.62.78-1.14.62-.56-.17-.75-.51-.62-1.13.03-.14.07-.28.11-.42.18-.57.38-1.14.55-1.72.07-.24.05-.48-.22-.58-.25-.09-.44.05-.51.28-.27.82-.54,1.64-.76,2.47-.12.46,0,.9.37,1.22.45.4,1.01.56,1.48.61ZM87.74,51.74h0c-.69.06-1.38.12-2.07.19-.34.03-.48.19-.49.53,0,.2.02.39.04.59.08.99.17,1.98.26,2.97.04.41.21.62.49.61.29,0,.44-.23.43-.64-.01-.37-.04-.74-.07-1.12-.02-.27.09-.4.37-.41.39-.02.78-.07,1.18-.12.21-.03.36-.14.34-.37-.02-.22-.19-.28-.38-.28-.27,0-.54.03-.81.06-.81.08-.86.03-.88-.79,0-.28.11-.39.38-.41.44-.03.89-.07,1.33-.13.23-.03.56-.03.53-.39-.03-.35-.34-.29-.59-.3h-.06ZM74.43,9.34c-.02-.47,0-.48.48-.7.07-.03.14-.05.2-.09.53-.32,1.02-.42,1.46.17.14.19.38.24.56.02.18-.21.11-.4-.07-.57-.82-.8-1.65-1.61-2.48-2.4-.2-.19-.43-.28-.71-.14-.27.14-.35.37-.34.65.03.94.07,1.89.11,2.83.01.24,0,.49.09.71.05.13.23.27.37.29.19.03.32-.13.33-.33v-.44ZM105.06,13.97c-.49,0-1.04.29-1.52.76-1.11,1.07-.68,2.41.34,3.1.38.25.79.3,1.22.17.31-.09.47-.29.4-.5-.09-.29-.33-.23-.54-.21-.03,0-.06.01-.09.02-.49.08-.87-.1-1.13-.53-.23-.38-.19-.81.1-1.19.3-.39.7-.65,1.16-.81.44-.16.84-.05,1.17.28.3.31.33.68.21,1.07-.04.13-.12.26-.11.38,0,.12.06.27.15.34.07.05.27.04.33-.02.14-.13.27-.3.32-.47.35-1.13-.61-2.39-2-2.39h-.01ZM89.09,6.14c.92.02,1.37-.36,1.46-1.09.09-.7-.27-1.19-1.02-1.36-.39-.09-.79-.15-1.19-.21-.52-.08-.7.05-.79.57-.12.67-.24,1.35-.35,2.02-.06.35-.13.69-.16,1.04-.02.21.07.4.32.42.22.02.38-.09.44-.31.07-.28.13-.57.17-.85.04-.28.18-.4.47-.34.26.05.53.08.67.1h-.02ZM70.49,46.99c-.11-.16-.18-.31-.29-.43-.44-.49-.88-.97-1.33-1.44-.25-.26-.5-.53-.78-.76-.09-.07-.34-.07-.43,0-.09.07-.1.29-.07.43.03.12.16.21.25.31.52.61.62.56,0,1.11-.03.03-.06.06-.09.08-.62.58-1.24,1.16-1.86,1.75-.24.23-.27.49-.1.69.16.19.43.19.67,0,.21-.18.42-.37.62-.56.54-.51,1.09-1.02,1.63-1.53.21-.19.39-.18.58.04.16.19.33.38.53.52.1.07.28.1.4.07.09-.02.15-.17.25-.29h.02ZM81.28,3.69c.07.14.1.24.15.32.28.39.55.78.84,1.15.28.35.48.72.46,1.19,0,.26.03.52.07.77.03.21.16.37.4.36.24,0,.35-.19.36-.4.01-.25,0-.5-.04-.74-.06-.46.03-.87.28-1.27.28-.44.5-.91.73-1.37.09-.18.1-.37-.13-.48-.22-.1-.38,0-.49.19-.17.3-.34.6-.49.9-.34.66-.4.66-.83.06-.2-.29-.4-.58-.64-.84-.09-.09-.28-.16-.4-.13-.1.02-.18.19-.27.28h0ZM69.16,9.21c.25-.16.46-.3.67-.45.27-.18.4-.16.59.11.25.37.51.73.76,1.1.26.36.51.73.78,1.09.15.19.35.28.57.11.2-.15.18-.36.06-.55-.11-.18-.22-.35-.34-.52-.4-.57-.79-1.14-1.19-1.71-.15-.22-.14-.4.1-.54.14-.08.27-.2.4-.3.17-.13.29-.3.16-.5-.15-.22-.35-.14-.52-.02-.37.25-.74.5-1.1.76-.36.25-.72.49-1.05.77-.1.08-.15.27-.15.4,0,.08.15.15.27.26h0ZM98.6,11.93c.07.13.11.25.18.32.19.19.39.37.59.55.35.29.7.59,1.07.85.09.07.36.05.4-.02.07-.11.04-.3,0-.44-.02-.08-.14-.15-.22-.21-.29-.25-.59-.49-.88-.74-.19-.16-.19-.32-.02-.5.35-.39.69-.8,1.03-1.21.26-.31.51-.63.75-.95.12-.16.12-.37-.06-.47-.13-.07-.32-.06-.48-.03-.08.01-.16.12-.23.2-.57.66-1.13,1.32-1.69,1.99-.17.2-.31.43-.46.66h.02ZM101.16,14.54c.1.12.17.29.26.3.15.03.37,0,.48-.09.84-.7,1.67-1.43,2.49-2.15.19-.17.28-.38.09-.6s-.42-.14-.61.02c-.82.7-1.64,1.4-2.44,2.11-.11.1-.17.25-.27.4h0Z" style="fill: #fff; stroke-width: 0px;"/>
  <path d="M84.87,8.31c11.73,0,21.33,9.45,21.33,21.33s-9.42,21.21-21.15,21.28c-11.88.07-21.19-9.39-21.45-20.79-.27-12.12,9.45-21.79,21.27-21.82ZM84.73,50.31c11.61.06,20.83-9.32,20.86-20.64.03-11.48-9.35-20.82-20.86-20.76-11.31.06-20.56,9.36-20.53,20.78.03,11.36,9.24,20.53,20.53,20.62Z" style="fill: #fff; stroke-width: 0px;"/>
  <path d="M99.53,51.36v.72c0,.27-.11.49-.39.51-.28.03-.41-.2-.43-.44-.05-.51-.09-1.01-.08-1.52.01-.46-.13-.74-.59-.87-.35-.1-.68-.26-1.02-.39-.19-.07-.33-.04-.52.07-.52.32-1.07.59-1.61.88-.42.23-.45.31-.22.72.33.58.34.58.92.27.37-.2.74-.39,1.11-.56.19-.09.41-.16.55.09.13.25-.05.4-.23.5-.42.23-.85.44-1.27.65-.39.2-.42.29-.24.67.08.16.17.31.24.47.12.25.28.26.51.14.46-.24.92-.48,1.38-.71.13-.06.27-.16.4-.16s.31.07.38.17c.05.08,0,.28-.08.38-.08.11-.23.18-.36.24-.65.33-1.3.66-1.94.99-.47.24-.71.17-.96-.31-.44-.86-.87-1.72-1.31-2.58-.05-.09-.09-.19-.16-.26-.04-.04-.19-.05-.2-.03-.23.34-.61.36-.95.47-.38.11-.43.2-.31.58.25.88.51,1.75.76,2.63.04.14.1.3.07.42-.04.15-.15.36-.27.39-.14.04-.34-.05-.49-.14-.09-.06-.13-.21-.16-.32-.26-.91-.52-1.81-.78-2.72-.11-.38-.2-.44-.58-.34-.22.06-.44.12-.66.16-.21.04-.41-.04-.43-.25,0-.13.12-.35.24-.4.48-.19.98-.33,1.48-.47.44-.13.87-.29,1.32-.37.44-.08.79-.23,1.17-.5.74-.52,1.61-.84,2.43-1.25.09-.05.2-.09.25-.17.21-.29.48-.29.78-.17.34.13.67.28,1.01.41.34.13.45.05.44-.31-.01-.33-.03-.66-.05-1,0-.12,0-.25.01-.37.03-.22.15-.37.39-.36.22,0,.34.15.36.36.03.49.06.97.08,1.46.02.54.03.55.53.74.48.18.97.37,1.45.57.24.1.41.26.34.55-.06.23-.31.34-.62.24-.44-.15-.87-.33-1.31-.49-.3-.11-.4-.04-.41.28v.72h.05-.02Z" style="fill: #fff; stroke-width: 0px;"/>
  <path d="M78.86,51.91c-.48-.16-.91-.31-1.35-.45-.18-.06-.35-.12-.53-.18-.07-.02-.14-.04-.21-.03-.2.03-.45.45-.43.83,0,.12.17.28.29.33.43.18.88.31,1.32.47.06.02.12.04.17.07.18.09.34.19.26.43-.09.24-.29.25-.49.18-.5-.16-1.01-.32-1.5-.51-.25-.09-.4-.03-.48.22-.08.22-.15.43-.22.65s0,.36.23.43c.53.18,1.06.36,1.59.55.06.02.12.04.18.06.2.09.38.21.28.47-.09.23-.29.25-.5.18-.44-.14-.89-.29-1.33-.44-.37-.13-.75-.24-1.11-.4-.41-.17-.48-.38-.34-.79.33-.96.65-1.93.99-2.88.09-.24.06-.38-.22-.45-.27-.07-.52-.21-.77-.33-.25-.13-.42-.1-.55.17-.38.78-.78,1.56-1.18,2.33-.08.17-.18.33-.29.48-.14.18-.32.26-.55.15-.22-.11-.28-.31-.21-.53.07-.21.16-.41.26-.6.37-.74.75-1.48,1.13-2.21.17-.32.14-.42-.18-.59-.19-.1-.39-.2-.58-.31-.2-.12-.29-.32-.18-.53.1-.21.32-.2.49-.12.43.19.86.41,1.28.63.45.23.9.46,1.35.71.14.08.25.21.38.31.07.06.14.15.22.15.92.05,1.72.53,2.58.78.13.04.28.08.36.17.09.1.17.27.14.39-.02.1-.2.16-.3.23v-.02Z" style="fill: #fff; stroke-width: 0px;"/>
  <path d="M80.28,54.08c.03-.65.2-1.4.88-1.89.87-.63,1.82-.56,2.71-.08.86.47,1.07,1.3,1.01,2.22-.04.56-.21,1.08-.57,1.52-.67.83-1.81.86-2.69.55-.87-.3-1.34-1.1-1.34-2.32ZM81.2,54.38c.04.15.07.42.16.67.17.47.53.74,1.02.8.5.06.93-.11,1.21-.54.42-.65.49-1.36.19-2.08-.33-.79-1.41-.99-2.04-.41-.42.39-.5.91-.55,1.56h.01Z" style="fill: #fff; stroke-width: 0px;"/>
  <path d="M111.58,32.75c-.23-.15-.45-.3-.68-.46-.19-.13-.37-.27-.55-.4-.18-.14-.35-.13-.54.01-.32.25-.65.48-.98.71-.07.05-.18.05-.28.07,0-.09-.03-.18,0-.26.11-.38.23-.75.35-1.13.08-.26.03-.45-.21-.62-.32-.22-.63-.47-.94-.72-.06-.05-.09-.14-.14-.21.08-.03.16-.09.24-.1.38-.01.77-.02,1.15,0,.3.01.47-.11.55-.39.08-.29.18-.57.28-.86.06-.17.13-.34.2-.5h.09c.06.09.12.19.16.29.13.36.26.72.37,1.09.08.28.26.37.53.36h1.15c.08,0,.16.06.24.1-.05.07-.08.16-.15.21-.29.23-.59.45-.9.67-.26.18-.36.4-.24.72.13.36.23.73.34,1.1.02.07.02.15.03.23-.03.02-.06.05-.08.07v.02Z" style="fill: #fff; stroke-width: 0px;"/>
  <path d="M58.51,32.68c.02-.12.03-.24.07-.35.11-.36.21-.72.33-1.07.09-.26.02-.43-.2-.59-.39-.27-.76-.57-1.23-.92.2-.06.32-.11.43-.11.38-.01.77-.01,1.15,0,.25,0,.4-.09.47-.35.1-.37.24-.73.37-1.09.04-.1.1-.19.18-.36.08.14.15.22.18.31.12.36.26.72.35,1.09.08.31.27.41.57.4.35,0,.71-.01,1.06,0,.11,0,.22.07.33.11-.07.08-.12.19-.2.25-.28.22-.57.44-.87.65-.26.18-.34.39-.22.69.13.35.23.71.34,1.07.03.09.02.19.04.39-.25-.16-.42-.27-.58-.39-.24-.17-.47-.34-.7-.51-.19-.15-.37-.14-.56,0-.32.24-.66.47-.99.7-.07.05-.16.08-.23.13-.03-.02-.05-.04-.08-.05h0Z" style="fill: #fff; stroke-width: 0px;"/>
  <path d="M104.37,42.6c-.57-.02-1.01.32-1.06.86-.02.18.06.44.19.54.11.09.4.07.54,0,.32-.19.6-.45.89-.67.11-.09.23-.18.35-.26.48-.31.97-.42,1.48-.08.51.34.72.83.6,1.43-.18.83-.63,1.48-1.44,1.78-.29.11-.67.04-.99,0-.2-.03-.37-.23-.3-.47.06-.23.26-.31.49-.29.08,0,.16.02.25.03.68.09,1.28-.45,1.24-1.14-.03-.48-.47-.74-.89-.5-.23.13-.43.32-.65.48-.28.21-.55.46-.86.6-.85.39-1.78-.26-1.64-1.19.13-.85.56-1.55,1.42-1.85.22-.08.51-.04.75,0,.2.04.34.21.29.45-.05.23-.23.3-.44.3h-.22Z" style="fill: #fff; stroke-width: 0px;"/>
  <path d="M64.46,46.51c-.23-.09-.51-.14-.72-.28-.67-.47-1.13-1.09-1.14-1.96,0-.35.12-.65.36-.9.15-.15.32-.24.53-.12.22.13.22.34.13.55-.03.08-.08.15-.12.22-.31.58-.07,1.26.54,1.53.24.11.46.1.67-.06.22-.16.27-.4.21-.64-.09-.33-.23-.64-.33-.97-.07-.23-.14-.46-.17-.69-.11-.92.74-1.57,1.6-1.23.74.29,1.39,1.27,1.36,2.03-.01.3-.11.56-.36.72-.12.08-.34.11-.45.05-.1-.06-.14-.27-.16-.42-.01-.08.06-.17.09-.26.19-.52.07-.93-.36-1.27-.21-.16-.42-.23-.66-.07-.22.15-.25.38-.18.61.13.44.29.86.43,1.3.25.74.02,1.37-.64,1.68-.18.09-.39.11-.64.17h.01Z" style="fill: #fff; stroke-width: 0px;"/>
  <path d="M72.07,48.36c-.1.35-.25.83-.4,1.32-.24.78-.47,1.57-.71,2.35-.04.13-.1.3-.2.37-.13.08-.35.15-.47.09-.12-.05-.23-.27-.23-.41,0-.23.08-.47.16-.69.08-.22.05-.38-.13-.52-.33-.27-.66-.53-.99-.81-.19-.16-.38-.18-.6-.05-.14.09-.29.16-.44.24-.32.17-.53.14-.67-.11-.14-.24-.06-.46.25-.64.57-.33,1.15-.66,1.73-.98.5-.28.98-.58,1.49-.83.22-.11.49-.17.73-.15.31.03.47.32.46.82h.02ZM70.48,50.29c.09-.12.18-.2.22-.3.14-.37.26-.74.37-1.12.02-.08,0-.17,0-.26-.1,0-.21,0-.29.03-.22.11-.43.25-.64.37-.78.46-.65.48-.09.94.13.1.26.2.44.33h-.01Z" style="fill: #fff; stroke-width: 0px;"/>
  <path d="M97.48,11.03c-.19-.05-.39-.07-.56-.16-.54-.28-1.08-.57-1.61-.87-.27-.16-.31-.39-.16-.67.46-.85.92-1.69,1.39-2.53.28-.51.5-.56,1-.27.37.21.76.39,1.1.63.24.17.5.4.62.66.23.48-.05,1.06-.58,1.25-.26.1-.31.2-.2.46.31.71-.22,1.47-1,1.49h0ZM97.24,10.37c.21-.16.41-.27.53-.44.14-.2.1-.47-.1-.62-.31-.23-.65-.44-.99-.62-.19-.1-.32.06-.37.23-.09.27-.52.53-.21.82.3.28.72.41,1.15.64h-.01ZM98.53,8.05s-.03-.16-.09-.21c-.31-.22-.62-.43-.95-.62-.06-.03-.22.02-.27.08-.13.18-.24.39-.32.59-.03.07.02.23.09.27.28.17.57.34.88.44.34.11.66-.16.66-.55Z" style="fill: #fff; stroke-width: 0px;"/>
  <path d="M101.13,45.2c.24.09.57.21.89.35.9.4,1.8.8,2.7,1.2.13.06.25.14.38.22.18.12.25.32.14.48-.08.12-.28.24-.41.23-.23-.02-.46-.12-.67-.22-.27-.13-.47-.08-.67.12-.29.29-.57.57-.87.85-.17.16-.2.32-.11.53.08.18.15.37.22.55.1.24.07.46-.19.58-.25.11-.46,0-.57-.22-.17-.34-.31-.7-.46-1.05-.32-.77-.63-1.53-.94-2.3-.07-.18-.15-.37-.18-.56-.06-.4.26-.75.75-.75h0ZM102.98,47.03c-.05-.07-.08-.15-.14-.17-.41-.2-.81-.42-1.23-.59-.19-.08-.28.05-.2.24.18.41.36.81.55,1.22.07.16.2.18.33.06.19-.17.38-.35.56-.53.05-.06.08-.14.13-.22h0Z" style="fill: #fff; stroke-width: 0px;"/>
  <path d="M63.91,16.34c.24.18.47.36.71.53.31.24.63.47.95.71.2.15.36.31.2.57-.11.19-.37.2-.64.01-.58-.41-1.15-.82-1.72-1.24-.26-.19-.52-.37-.78-.57-.2-.16-.39-.33-.28-.63.11-.29.35-.32.61-.31.75.03,1.49.06,2.24.1.09,0,.19.03.28.01.11-.01.21-.06.31-.09-.06-.09-.1-.2-.18-.26-.45-.34-.9-.66-1.36-.99-.04-.03-.09-.06-.13-.09-.17-.16-.35-.33-.17-.58s.39-.15.6,0c.82.59,1.65,1.19,2.47,1.78.08.06.16.13.23.21.23.25.16.59-.16.7-.19.07-.41.09-.61.08-.7-.02-1.41-.07-2.11-.11-.15,0-.29.02-.44.03,0,.04-.02.09-.04.13h.02Z" style="fill: #fff; stroke-width: 0px;"/>
  <path d="M80.62,5.05c.03.32-.16.55-.4.77s-.22.26.03.47c.31.27.6.56.89.86.13.14.22.32.05.5-.18.18-.41.17-.59.02-.24-.21-.45-.46-.69-.68-.18-.17-.36-.34-.57-.47-.12-.08-.29-.11-.44-.11-.34,0-.46.12-.4.46.05.3.14.59.19.88.02.13.03.29-.03.39-.06.11-.24.24-.32.22-.15-.04-.31-.18-.38-.31-.1-.21-.13-.46-.18-.69-.18-.8-.37-1.6-.55-2.4-.09-.4.02-.6.42-.7.57-.14,1.15-.28,1.73-.36.72-.11,1.25.4,1.25,1.16h-.01ZM79.81,5.15c0-.38-.26-.64-.62-.61-.31.03-.62.09-.91.18-.25.07-.25.29-.18.48.09.24-.02.63.43.65h.03c.28-.07.57-.13.84-.23.23-.08.4-.25.41-.47Z" style="fill: #fff; stroke-width: 0px;"/>
  <path d="M70.15,12.22c-.03.84-.49,1.41-1.2,1.79-.7.38-1.39.3-2.01-.19-.31-.25-.61-.55-.81-.89-.56-.94-.24-2.04.74-2.66.84-.54,1.72-.43,2.48.32.46.44.8.95.79,1.64h0ZM67.94,10.68c-.93-.01-1.52.77-1.26,1.48.22.61.64,1.03,1.25,1.26.48.18.88,0,1.2-.35.3-.33.36-.72.19-1.13-.09-.23-.22-.45-.38-.63-.31-.34-.67-.61-.99-.62h-.01Z" style="fill: #fff; stroke-width: 0px;"/>
  <path d="M93.05,8.94c-.47-.06-1.03-.22-1.48-.61-.37-.32-.49-.77-.37-1.22.22-.83.49-1.65.76-2.47.07-.23.26-.37.51-.28.26.1.29.34.22.58-.18.58-.37,1.15-.55,1.72-.04.14-.08.28-.11.42-.13.62.06.96.62,1.13.52.16.93-.05,1.14-.62.22-.6.41-1.22.61-1.83.03-.08.05-.16.08-.24.12-.3.3-.42.53-.34.22.07.31.29.21.6-.25.78-.51,1.56-.79,2.32-.2.54-.69.84-1.38.84Z" style="fill: #fff; stroke-width: 0px;"/>
  <path d="M87.74,51.74h.03c.24,0,.55-.05.59.3.03.36-.29.35-.53.39-.44.06-.89.1-1.33.13-.27.02-.38.13-.38.41.02.81.07.87.88.79.27-.03.54-.05.81-.06.19,0,.37.06.38.28.02.23-.13.34-.34.37-.39.05-.78.09-1.18.12-.28.02-.39.14-.37.41.03.37.06.74.07,1.12.01.41-.14.63-.43.64-.28,0-.45-.2-.49-.61-.09-.99-.17-1.98-.26-2.97-.02-.2-.05-.39-.04-.59.01-.34.16-.49.49-.53.69-.07,1.38-.13,2.07-.19h.03Z" style="fill: #fff; stroke-width: 0px;"/>
  <path d="M74.43,9.34v.41c-.01.21-.14.36-.33.33-.14-.02-.32-.16-.37-.29-.08-.22-.08-.47-.09-.71-.04-.94-.08-1.89-.11-2.83,0-.28.07-.51.34-.65.28-.14.51-.04.71.14.83.8,1.65,1.6,2.48,2.4.18.17.25.37.07.57-.19.22-.42.17-.56-.02-.44-.58-.93-.49-1.46-.17-.06.04-.13.06-.2.09-.49.22-.5.24-.48.7v.03ZM74.23,6.85c.03.24.05.4.06.57.07.81.12.84.84.46.29-.15.31-.25.09-.49-.2-.21-.39-.43-.6-.62-.07-.07-.19-.1-.29-.14-.04.1-.09.19-.11.23h.01Z" style="fill: #fff; stroke-width: 0px;"/>
  <path d="M105.06,13.97c1.4,0,2.35,1.27,2,2.39-.06.18-.19.34-.32.47-.07.06-.26.07-.33.02-.09-.06-.15-.22-.15-.34,0-.13.08-.26.11-.38.12-.39.09-.76-.21-1.07-.33-.34-.73-.44-1.17-.28-.46.16-.86.42-1.16.81-.3.38-.33.8-.1,1.19.25.43.63.61,1.13.53.03,0,.06-.01.09-.02.22-.02.45-.08.54.21.07.21-.09.41-.4.5-.43.12-.84.08-1.22-.17-1.02-.69-1.44-2.02-.34-3.1.48-.47,1.03-.76,1.52-.76h.01Z" style="fill: #fff; stroke-width: 0px;"/>
  <path d="M89.09,6.14c-.14-.02-.4-.05-.67-.1-.29-.06-.42.05-.47.34-.04.29-.11.57-.17.85-.05.22-.21.33-.44.31-.25-.02-.33-.22-.32-.42.03-.35.1-.7.16-1.04.12-.67.23-1.35.35-2.02.09-.52.27-.65.79-.57.4.06.8.13,1.19.21.75.17,1.11.65,1.02,1.36-.09.74-.54,1.11-1.46,1.09h.02ZM88.96,5.57c.44-.06.7-.24.77-.58.06-.27-.08-.57-.36-.68-.23-.09-.48-.14-.72-.17-.09-.01-.26.06-.28.13-.07.33-.19.69-.12.99.04.15.46.21.71.31Z" style="fill: #fff; stroke-width: 0px;"/>
  <path d="M70.49,46.99c-.1.12-.16.27-.25.29-.12.03-.3,0-.4-.07-.2-.15-.37-.33-.53-.52-.19-.22-.38-.23-.58-.04-.54.51-1.09,1.02-1.63,1.53-.2.19-.41.38-.62.56-.23.19-.5.19-.67,0-.17-.2-.14-.46.1-.69.62-.59,1.24-1.17,1.86-1.75.03-.03.06-.06.09-.08.62-.56.52-.5,0-1.11-.09-.1-.22-.19-.25-.31-.03-.14-.02-.36.07-.43.09-.08.34-.08.43,0,.28.22.53.49.78.76.45.48.89.96,1.33,1.44.11.12.18.26.29.43h-.02Z" style="fill: #fff; stroke-width: 0px;"/>
  <path d="M81.28,3.69c.09-.1.16-.26.27-.28.12-.02.32.04.4.13.24.26.44.55.64.84.43.6.49.6.83-.06.16-.3.33-.6.49-.9.11-.2.27-.29.49-.19s.22.3.13.48c-.23.46-.45.93-.73,1.37-.25.4-.34.81-.28,1.27.03.25.05.5.04.74-.01.21-.11.39-.36.4-.24,0-.36-.15-.4-.36-.04-.26-.08-.52-.07-.77.02-.47-.18-.83-.46-1.19-.29-.37-.57-.77-.84-1.15-.06-.08-.09-.18-.15-.32h0Z" style="fill: #fff; stroke-width: 0px;"/>
  <path d="M69.16,9.21c-.12-.11-.27-.19-.27-.26,0-.14.05-.32.15-.4.33-.28.7-.52,1.05-.77.36-.26.73-.51,1.1-.76.17-.11.38-.19.52.02s.02.37-.16.5c-.13.1-.26.21-.4.3-.25.15-.26.32-.1.54.4.57.8,1.14,1.19,1.71.12.17.23.34.34.52.12.2.14.4-.06.55-.22.17-.42.08-.57-.11-.27-.35-.52-.72-.78-1.09-.26-.36-.51-.73-.76-1.1-.19-.27-.32-.29-.59-.11-.21.14-.42.28-.67.45h0Z" style="fill: #fff; stroke-width: 0px;"/>
  <path d="M98.6,11.93c.16-.22.29-.45.46-.66.56-.67,1.12-1.33,1.69-1.99.07-.08.14-.19.23-.2.16-.03.35-.04.48.03.17.1.18.3.06.47-.24.32-.49.64-.75.95-.34.41-.68.81-1.03,1.21-.17.19-.17.35.02.5.29.25.59.5.88.74.08.07.2.13.22.21.04.14.07.33,0,.44-.04.07-.31.08-.4.02-.37-.26-.72-.56-1.07-.85-.21-.17-.41-.35-.59-.55-.07-.08-.11-.19-.18-.32h-.02Z" style="fill: #fff; stroke-width: 0px;"/>
  <path d="M101.16,14.54c.1-.16.16-.31.27-.4.81-.71,1.63-1.41,2.44-2.11.19-.16.41-.24.61-.02.19.22.1.43-.09.6-.82.72-1.65,1.45-2.49,2.15-.11.09-.33.11-.48.09-.09-.02-.16-.18-.26-.3h0Z" style="fill: #fff; stroke-width: 0px;"/>
  <path d="M84.73,50.31c-11.29-.09-20.5-9.26-20.53-20.62-.03-11.42,9.22-20.72,20.53-20.78,11.51-.06,20.89,9.28,20.86,20.76-.03,11.32-9.24,20.7-20.86,20.64ZM98.84,26.58c.1-.02.21,0,.29-.06,1.04-.75,2.09-1.5,3.12-2.26.13-.09.21-.25.31-.38-.16-.04-.32-.12-.49-.12h-12.3c-.42,0-.53-.07-.66-.47-.32-1-.64-1.99-.96-2.99-.69-2.12-1.4-4.23-2.09-6.35-.27-.82-.5-1.64-.77-2.46-.04-.11-.16-.19-.24-.29-.07.1-.16.18-.19.29-.37,1.1-.72,2.21-1.08,3.31-.55,1.7-1.11,3.39-1.66,5.09-.39,1.18-.76,2.37-1.16,3.55-.05.15-.25.31-.41.35-.26.06-.53.03-.8.03h-8.88c-.99,0-1.97-.03-2.96-.04-.11,0-.22.08-.33.12.07.09.11.21.2.28.8.59,1.6,1.18,2.41,1.77,1.29.93,2.58,1.85,3.86,2.78,1.22.88,2.43,1.77,3.64,2.66.55.4.58.46.37,1.11-.65,1.99-1.3,3.98-1.94,5.97-.37,1.15-.72,2.31-1.1,3.47-.24.73-.5,1.45-.74,2.18-.03.1.02.23.03.35.09-.02.21-.02.28-.07.94-.67,1.87-1.34,2.8-2.02,1.02-.75,2.04-1.5,3.06-2.25,1.31-.96,2.64-1.91,3.95-2.87.64-.48.63-.49,1.31-.06,0,0,.02,0,.03,0,.89.64,1.79,1.28,2.67,1.92.78.57,1.55,1.14,2.32,1.71.74.53,1.48,1.05,2.22,1.59.87.64,1.73,1.29,2.6,1.92.09.07.24.07.36.1,0-.12.02-.24-.02-.35-1-3.11-2-6.22-3.01-9.33-.27-.85-.56-1.7-.84-2.54-.08-.26-.11-.49.16-.69.9-.64,1.79-1.31,2.69-1.96,1.22-.88,2.44-1.75,3.65-2.64.13-.09.2-.25.31-.38h0v.02Z" style="fill: #fff; stroke-width: 0px;"/>
  <path d="M98.85,26.57c-.1.13-.18.28-.31.38-1.21.89-2.43,1.76-3.65,2.64-.9.65-1.79,1.31-2.69,1.96-.27.19-.25.43-.16.69.28.85.56,1.69.84,2.54,1,3.11,2.01,6.22,3.01,9.33.03.11.01.23.02.35-.12-.03-.26-.03-.36-.1-.87-.63-1.73-1.29-2.6-1.92-.73-.54-1.48-1.05-2.22-1.59-.78-.56-1.55-1.14-2.32-1.71-.89-.65-1.78-1.28-2.67-1.92,0,0-.02,0-.03,0-.67-.43-.66-.41-1.31.06-1.31.97-2.63,1.91-3.95,2.87-1.02.75-2.04,1.5-3.06,2.25-.93.68-1.86,1.35-2.8,2.02-.07.05-.18.05-.28.07-.01-.12-.06-.25-.03-.35.24-.73.5-1.45.74-2.18.37-1.15.72-2.31,1.1-3.47.64-1.99,1.3-3.98,1.94-5.97.21-.65.18-.71-.37-1.11-1.22-.88-2.43-1.78-3.64-2.66-1.28-.93-2.58-1.85-3.86-2.78-.81-.58-1.61-1.17-2.41-1.77-.09-.06-.13-.18-.2-.28.11-.04.22-.12.33-.12.99,0,1.97.04,2.96.04h8.88c.27,0,.55.03.8-.03.16-.04.36-.2.41-.35.41-1.18.78-2.36,1.16-3.55.55-1.7,1.11-3.39,1.66-5.09.36-1.1.72-2.21,1.08-3.31.04-.11.13-.19.19-.29.08.09.2.18.24.29.27.82.5,1.64.77,2.46.69,2.12,1.39,4.23,2.09,6.35.33.99.64,1.99.96,2.99.13.39.24.47.66.47h12.3c.16,0,.32.08.49.12-.1.13-.18.29-.31.38-1.03.76-2.07,1.51-3.12,2.26-.07.05-.19.04-.29.06.4-.31.8-.62,1.2-.93.39-.3.77-.59,1.16-.89.06-.04.07-.13.11-.2-.08-.02-.16-.05-.25-.05-.05,0-.1.02-.15.04-1.97.64-3.95,1.28-5.92,1.93-2.49.81-4.97,1.62-7.46,2.44-.49.16-.99.31-1.48.48-.1.03-.17.13-.25.2.08.07.15.16.24.2.32.12.65.22.97.32,1.44.47,2.88.95,4.32,1.42.3.1.59.06.85-.14.63-.48,1.27-.96,1.91-1.43,1.25-.92,2.51-1.83,3.76-2.74.32-.23.65-.43.98-.65l.02-.02ZM85.32,12.46s-.09.02-.13.03c-.01.23-.04.46-.04.7v15.22c0,.1,0,.21.02.31.02.07.07.15.13.18.04.02.13-.04.18-.09.16-.19.31-.39.45-.59.97-1.34,1.94-2.69,2.93-4.02.2-.27.24-.53.1-.84-.1-.23-.16-.47-.24-.7-.56-1.74-1.11-3.47-1.67-5.21-.52-1.57-1.05-3.14-1.58-4.71-.03-.1-.1-.18-.15-.27h0ZM74.84,23.95h-5.6c-.11,0-.21.07-.32.11.08.07.15.18.24.21.56.2,1.11.39,1.68.58,2.05.67,4.1,1.33,6.16,1.99,1.84.6,3.69,1.2,5.53,1.79.53.17,1.06.35,1.6.51.1.03.23-.02.35-.03-.03-.11-.04-.24-.1-.34-.09-.15-.22-.28-.32-.42-.97-1.34-1.95-2.68-2.91-4.03-.2-.27-.43-.39-.76-.38h-5.55ZM94.86,43.58s.07-.06.11-.09c-.08-.16-.16-.32-.26-.47-.37-.52-.74-1.02-1.11-1.53-.93-1.29-1.86-2.59-2.8-3.88-.78-1.07-1.57-2.14-2.35-3.21-.97-1.32-1.92-2.65-2.89-3.97-.06-.08-.18-.12-.27-.17-.04.1-.12.19-.12.29,0,1.88,0,3.76-.01,5.63,0,.28.11.5.34.66.25.18.51.36.76.54,1.1.79,2.21,1.58,3.3,2.38,1.45,1.05,2.88,2.12,4.33,3.18.31.23.65.43.97.65h0ZM84.33,29.94c-.11.03-.19.05-.27.08-.98.32-1.95.63-2.93.95-.81.26-1.62.53-2.42.81-.12.04-.26.13-.31.23-.15.32-.26.65-.37.99-.25.78-.48,1.56-.73,2.34-.2.61-.43,1.21-.63,1.82-.42,1.29-.83,2.59-1.24,3.88-.2.63-.41,1.26-.6,1.89-.02.08.03.18.04.27.08-.03.18-.04.23-.1.14-.15.27-.31.39-.48.59-.81,1.17-1.63,1.76-2.44,1.03-1.42,2.07-2.83,3.1-4.24,1.06-1.46,2.11-2.92,3.17-4.38.3-.41.6-.82.89-1.24.05-.07.07-.17.06-.26,0-.04-.1-.07-.15-.1v-.02Z" style="fill: #fff; stroke-width: 0px;"/>
</svg>