<?xml version="1.0" encoding="UTF-8"?>
<svg id="Capa_1" data-name="Capa 1" xmlns="http://www.w3.org/2000/svg" width="100" height="100" viewBox="0 0 100 100">
  <polygon points="66.56 99.9 49.7 96.71 32.85 99.9 32.85 84.49 50 88.27 66.56 84.49 66.56 99.9" style="fill: #3a78a1; stroke-width: 0px;"/>
  <path d="M31.17,79.81c5.62,2.98,12.03,4.66,18.83,4.66s13.21-1.69,18.83-4.66H31.17Z" style="fill: #3a78a1; stroke-width: 0px;"/>
  <path d="M87.66,58.55c1.7-4.46,2.65-9.3,2.65-14.37,0-22.26-18.05-40.3-40.3-40.3S9.7,21.94,9.7,44.18c0,5.07.94,9.9,2.65,14.37,0,0,75.3,0,75.3,0Z" style="fill: #3a78a1; stroke-width: 0px;"/>
  <g>
    <path d="M73.11,79.81c-6.65,4.34-14.59,6.87-23.11,6.87s-16.46-2.53-23.11-6.87h-2.81c7.28,5.32,16.23,8.45,25.93,8.45s18.65-3.15,25.93-8.45c0,0-2.81,0-2.81,0Z" style="fill: #3a78a1; stroke-width: 0px;"/>
    <path d="M10.02,58.55c-1.61-4.49-2.5-9.33-2.5-14.37C7.5,20.76,26.56,1.69,50,1.69s42.5,19.06,42.5,42.5c0,5.04-.89,9.88-2.5,14.37h1.69c1.56-4.5,2.41-9.34,2.41-14.37C94.08,19.87,74.31.1,50,.1S5.92,19.87,5.92,44.18c0,5.03.86,9.87,2.41,14.37,0,0,1.69,0,1.69,0Z" style="fill: #3a78a1; stroke-width: 0px;"/>
  </g>
  <path d="M20.12,58.55c-2.1-4.35-3.28-9.23-3.28-14.37,0-18.28,14.87-33.15,33.15-33.15s33.15,14.87,33.15,33.15c0,5.14-1.18,10.02-3.28,14.37h1.75c2-4.38,3.13-9.24,3.13-14.37,0-19.16-15.6-34.75-34.75-34.75S15.25,25.02,15.25,44.18c0,5.13,1.13,9.98,3.13,14.37,0,0,1.75,0,1.75,0Z" style="fill: #fff; stroke-width: 0px;"/>
  <ellipse cx="50" cy="58.49" rx="46.94" ry="1" style="fill: #3a78a1; stroke-width: 0px;"/>
  <path d="M83.69,79.23c0,.7-15.08,1.28-33.69,1.28s-33.69-.58-33.69-1.28,15.08-1.28,33.69-1.28,33.69.58,33.69,1.28Z" style="fill: #3a78a1; stroke-width: 0px;"/>
  <g>
    <polygon points="37.17 21.94 37.82 23.14 39.03 23.8 37.82 24.46 37.17 25.66 36.51 24.46 35.29 23.8 36.51 23.14 37.17 21.94" style="fill: #fff; stroke-width: 0px;"/>
    <polygon points="43.58 21.94 44.25 23.14 45.45 23.8 44.25 24.46 43.58 25.66 42.92 24.46 41.72 23.8 42.92 23.14 43.58 21.94" style="fill: #fff; stroke-width: 0px;"/>
    <polygon points="50 21.94 50.66 23.14 51.86 23.8 50.66 24.46 50 25.66 49.34 24.46 48.14 23.8 49.34 23.14 50 21.94" style="fill: #fff; stroke-width: 0px;"/>
    <polygon points="56.42 21.94 57.08 23.14 58.28 23.8 57.08 24.46 56.42 25.66 55.75 24.46 54.55 23.8 55.75 23.14 56.42 21.94" style="fill: #fff; stroke-width: 0px;"/>
    <polygon points="62.83 21.94 63.49 23.14 64.71 23.8 63.49 24.46 62.83 25.66 62.18 24.46 60.97 23.8 62.18 23.14 62.83 21.94" style="fill: #fff; stroke-width: 0px;"/>
  </g>
  <g style="isolation: isolate;">
    <text transform="translate(23.99 35.66)" style="fill: #fff; font-family: Volkhov-Regular, Volkhov; font-size: 8.7px; isolation: isolate; letter-spacing: -.05em;"><tspan x="0" y="0">REGISTERED</tspan></text>
    <text transform="translate(23.32 44.37)" style="fill: #fff; font-family: Volkhov-Regular, Volkhov; font-size: 8.7px; isolation: isolate; letter-spacing: -.1em;"><tspan x="0" y="0">T</tspan></text>
    <text transform="translate(28.11 44.37)" style="fill: #fff; font-family: Volkhov-Regular, Volkhov; font-size: 8.7px; isolation: isolate; letter-spacing: -.05em;"><tspan x="0" y="0">AX RETURN</tspan></text>
    <text transform="translate(28.5 53.1)" style="fill: #fff; font-family: Volkhov-Regular, Volkhov; font-size: 8.7px; isolation: isolate; letter-spacing: -.06em;"><tspan x="0" y="0">P</tspan></text>
    <text transform="translate(33.52 53.1)" style="fill: #fff; font-family: Volkhov-Regular, Volkhov; font-size: 8.7px; isolation: isolate; letter-spacing: -.05em;"><tspan x="0" y="0">RE</tspan></text>
    <text transform="translate(44.29 53.1)" style="fill: #fff; font-family: Volkhov-Regular, Volkhov; font-size: 8.7px; isolation: isolate; letter-spacing: -.11em;"><tspan x="0" y="0">P</tspan></text>
    <text transform="translate(48.86 53.1)" style="fill: #fff; font-family: Volkhov-Regular, Volkhov; font-size: 8.7px; isolation: isolate; letter-spacing: -.05em;"><tspan x="0" y="0">ARER</tspan></text>
  </g>
  <g style="isolation: isolate;">
    <text transform="translate(21.54 76.4)" style="fill: #3a78a1; font-family: Volkhov-Regular, Volkhov; font-size: 22.57px; isolation: isolate; letter-spacing: -.06em;"><tspan x="0" y="0">R</tspan></text>
    <text transform="translate(35.91 76.4)" style="fill: #3a78a1; font-family: Volkhov-Regular, Volkhov; font-size: 22.57px; isolation: isolate; letter-spacing: -.05em;"><tspan x="0" y="0">TRP</tspan></text>
  </g>
</svg>