<?xml version="1.0" encoding="UTF-8"?>
<svg id="Capa_1" data-name="Capa 1" xmlns="http://www.w3.org/2000/svg" width="161" height="40" viewBox="0 0 161 40">
  <g>
    <path d="M8.51,21.01c0,6.41,3.29,12.05,8.28,15.33.76-.76,1.52-1.53,2.28-2.29-1.16-.67-2.23-1.48-3.18-2.42-2.75-2.76-4.45-6.55-4.45-10.75,0-2.6.66-5.03,1.8-7.17l-1.72.27c-.17.03-.34-.03-.47-.15-.12-.12-.18-.29-.16-.46l.26-1.83c-1.67,2.77-2.64,6.01-2.64,9.48Z" style="fill: #97d5c9; stroke-width: 0px;"/>
    <path d="M37.01,31.24c2.66-2.66,4.29-6.31,4.3-10.37,0-4.06-1.64-7.71-4.3-10.37-2.66-2.66-6.31-4.29-10.37-4.3-2.19,0-4.25.48-6.11,1.34l3.41,3.59c.12.12.17.3.14.46.17-.27.47-.46.82-.46.54,0,.97.44.97.97v8.36l6.48,6.73c.37.39.36,1-.03,1.38-.39.37-1,.36-1.37-.03l-6.75-7.01c-.17-.18-.27-.42-.27-.67v-8.75c0-.09.02-.18.04-.27-.08.11-.2.18-.34.2l-9.42,1.5-.55.09-.42.07c-1.14,2.13-1.8,4.57-1.8,7.17,0,4.21,1.7,8,4.45,10.75.95.94,2.02,1.75,3.18,2.42.03-.03.07-.07.1-.1.17-.17.43-.21.64-.1.24.13.49.25.74.37h0s.08.03.08.03c.23.11.47.21.72.3h0s.07.03.07.03c.53.2,1.08.38,1.64.52h.04s0,.01,0,.01c.25.06.49.11.75.16h0c.07.01.14.03.22.04.2.03.4.07.6.09h0c.1.01.19.02.27.03.2.02.4.04.6.06.1,0,.18.02.26.02h0c.28.02.57.03.85.03,4.06,0,7.71-1.64,10.37-4.3Z" style="fill: #00a550; stroke-width: 0px;"/>
    <path d="M19.81,33.85c-.21-.11-.47-.07-.64.1-.03.03-.07.07-.1.1-.76.76-1.52,1.53-2.28,2.29,0,0,0,0-.01.01-.12.12-.17.29-.15.45.02.17.12.31.26.4,2.85,1.71,6.19,2.69,9.76,2.69,5.25,0,10.02-2.13,13.45-5.57,3.44-3.44,5.57-8.2,5.57-13.45h0c0-5.25-2.13-10.02-5.57-13.46-3.44-3.44-8.2-5.57-13.45-5.57-3.35,0-6.5.88-9.24,2.41L13.62.27c-.14-.15-.36-.21-.56-.14-.2.06-.35.24-.37.44l-1.42,10.11-.12.85-.26,1.83c-.02.17.03.34.16.46.12.12.3.18.47.15l1.72-.27.42-.07.55-.09,9.42-1.5c.14-.02.26-.1.34-.2.03-.09.06-.17.11-.25.03-.17-.02-.34-.14-.46l-3.41-3.59c1.86-.86,3.92-1.34,6.11-1.34,4.06,0,7.71,1.64,10.37,4.3,2.66,2.66,4.29,6.31,4.3,10.37,0,4.06-1.64,7.71-4.3,10.37-2.66,2.66-6.31,4.29-10.37,4.3-.28,0-.57,0-.85-.03h0c-.08,0-.16-.01-.26-.02-.2-.02-.4-.03-.6-.06-.09,0-.17-.02-.27-.03h0c-.2-.03-.4-.06-.6-.09-.08-.01-.16-.03-.22-.04h0c-.25-.05-.5-.1-.75-.16h0s-.04-.01-.04-.01c-.56-.14-1.11-.31-1.64-.52l-.07-.03h0c-.24-.09-.48-.19-.72-.3l-.08-.04h0c-.25-.11-.5-.24-.74-.36Z" style="fill: #5a6e7f; stroke-width: 0px;"/>
    <path d="M24.9,11.15c-.35,0-.65.18-.82.46-.05.08-.08.16-.11.25-.02.09-.04.17-.04.27v8.75c0,.25.1.49.27.67l6.75,7.01c.37.39.99.4,1.37.03.39-.37.4-.99.03-1.38l-6.48-6.73v-8.36c0-.54-.44-.97-.97-.97Z" style="fill: #97d5c9; stroke-width: 0px;"/>
  </g>
  <g>
    <path d="M73.47,15.07c-.1-.93-.52-1.65-1.25-2.17-.74-.52-1.69-.78-2.86-.78-.82,0-1.53.12-2.12.37-.59.25-1.04.59-1.35,1.01-.31.43-.47.91-.48,1.46,0,.45.1.85.31,1.18s.5.62.86.85c.36.23.76.42,1.2.58.44.16.88.29,1.33.39l2.04.51c.82.19,1.62.45,2.38.78s1.45.74,2.06,1.24c.61.5,1.09,1.1,1.44,1.8s.53,1.53.53,2.47c0,1.28-.33,2.4-.98,3.37-.65.97-1.6,1.73-2.83,2.27-1.23.54-2.72.81-4.47.81s-3.17-.26-4.42-.79c-1.25-.53-2.22-1.29-2.92-2.3s-1.08-2.24-1.13-3.69h3.89c.06.76.29,1.39.7,1.9.41.5.95.88,1.61,1.13.66.25,1.41.37,2.23.37s1.61-.13,2.26-.39c.65-.26,1.16-.62,1.53-1.09.37-.46.56-1.01.56-1.63,0-.57-.17-1.04-.5-1.41-.33-.37-.78-.68-1.37-.94-.59-.25-1.27-.48-2.05-.68l-2.48-.64c-1.8-.46-3.22-1.16-4.26-2.1-1.04-.94-1.56-2.19-1.56-3.76,0-1.29.35-2.41,1.05-3.38.7-.97,1.65-1.72,2.86-2.25s2.57-.8,4.1-.8,2.91.27,4.08.8c1.17.54,2.09,1.28,2.75,2.23.67.95,1.01,2.04,1.03,3.27h-3.8Z" style="fill: #fff; stroke-width: 0px;"/>
    <path d="M89.09,14.53v2.98h-9.41v-2.98h9.41ZM82.01,10.61h3.86v15.36c0,.52.08.92.24,1.19.16.27.37.46.63.56.26.1.55.15.87.15.24,0,.46-.02.67-.05.2-.04.36-.07.46-.1l.65,3.02c-.21.07-.5.15-.88.23-.38.08-.84.13-1.39.15-.97.03-1.84-.12-2.61-.44-.77-.32-1.39-.83-1.84-1.51-.45-.68-.67-1.53-.67-2.56V10.61Z" style="fill: #fff; stroke-width: 0px;"/>
    <path d="M97.03,31.22c-1.04,0-1.97-.19-2.8-.56s-1.48-.93-1.96-1.66-.72-1.63-.72-2.71c0-.92.17-1.69.51-2.29s.81-1.09,1.4-1.45c.59-.36,1.26-.64,2-.83.74-.19,1.51-.32,2.31-.41.96-.1,1.74-.19,2.33-.27s1.03-.21,1.3-.38c.27-.17.41-.45.41-.81v-.06c0-.8-.24-1.42-.71-1.86-.48-.44-1.16-.66-2.06-.66-.95,0-1.69.21-2.24.62-.55.41-.92.9-1.11,1.46l-3.6-.51c.28-.99.75-1.83,1.41-2.5.65-.67,1.45-1.18,2.4-1.51.94-.34,1.99-.51,3.13-.51.79,0,1.57.09,2.35.28.78.19,1.5.49,2.14.91.65.42,1.17,1,1.56,1.72.39.72.59,1.63.59,2.72v10.95h-3.71v-2.25h-.13c-.23.46-.56.88-.99,1.27-.42.39-.95.71-1.59.95s-1.38.36-2.23.36ZM98.03,28.39c.77,0,1.45-.16,2.01-.46s1.01-.72,1.32-1.23c.31-.51.46-1.07.46-1.67v-1.93c-.12.1-.33.19-.61.28-.29.09-.61.16-.96.22-.35.06-.71.12-1.05.17-.35.05-.65.09-.91.13-.58.08-1.09.21-1.54.38-.45.18-.81.42-1.08.74-.26.32-.39.72-.39,1.22,0,.71.26,1.25.78,1.61s1.18.54,1.98.54Z" style="fill: #fff; stroke-width: 0px;"/>
    <path d="M117.73,14.53v2.98h-9.41v-2.98h9.41ZM110.64,10.61h3.86v15.36c0,.52.08.92.24,1.19.16.27.37.46.63.56.26.1.55.15.87.15.24,0,.46-.02.67-.05.2-.04.36-.07.46-.1l.65,3.02c-.21.07-.5.15-.88.23-.38.08-.84.13-1.39.15-.97.03-1.84-.12-2.61-.44-.77-.32-1.39-.83-1.84-1.51-.45-.68-.67-1.53-.67-2.56V10.61Z" style="fill: #fff; stroke-width: 0px;"/>
    <path d="M131.38,24.01v-9.48h3.86v16.36h-3.74v-2.91h-.17c-.37.92-.98,1.67-1.82,2.25-.84.58-1.88.87-3.11.87-1.07,0-2.02-.24-2.84-.72s-1.46-1.18-1.92-2.1-.69-2.03-.69-3.34v-10.42h3.86v9.82c0,1.04.28,1.86.85,2.47.57.61,1.31.92,2.24.92.57,0,1.12-.14,1.65-.42.53-.28.97-.69,1.32-1.24.34-.55.52-1.24.52-2.07Z" style="fill: #fff; stroke-width: 0px;"/>
    <path d="M152.14,18.85l-3.52.38c-.1-.35-.27-.69-.52-1s-.57-.56-.99-.76c-.41-.19-.92-.29-1.51-.29-.8,0-1.47.17-2.02.52-.54.35-.81.8-.8,1.35,0,.48.17.86.53,1.16.36.3.95.54,1.78.73l2.79.6c1.55.33,2.7.86,3.46,1.59.76.72,1.14,1.67,1.15,2.84,0,1.03-.31,1.94-.9,2.72-.59.79-1.42,1.4-2.47,1.84-1.05.44-2.26.66-3.62.66-2,0-3.62-.42-4.84-1.26-1.22-.84-1.95-2.02-2.18-3.52l3.76-.36c.17.74.53,1.3,1.09,1.67.55.38,1.27.56,2.16.56s1.65-.19,2.21-.56c.56-.38.84-.84.84-1.4,0-.47-.18-.86-.54-1.16-.36-.31-.92-.54-1.67-.7l-2.79-.59c-1.57-.33-2.73-.88-3.48-1.66-.75-.78-1.13-1.76-1.12-2.96,0-1.01.27-1.88.83-2.63s1.33-1.32,2.33-1.73c1-.41,2.15-.61,3.46-.61,1.92,0,3.43.41,4.53,1.23,1.1.82,1.79,1.92,2.05,3.31Z" style="fill: #fff; stroke-width: 0px;"/>
  </g>
</svg>