<?xml version="1.0" encoding="UTF-8"?>
<svg id="Capa_1" data-name="Capa 1" xmlns="http://www.w3.org/2000/svg" width="32" height="32" viewBox="0 0 32 32">
  <path d="M26.42,1.31h-11.83c-1.82,0-3.42,1.09-4.32,2.73-.87-1.88-2.6-3.17-4.59-3.17C2.83.87.5,3.52.5,6.77v18.3c0,3.26,2.33,5.91,5.18,5.91,1.88,0,3.53-1.15,4.44-2.87.86,1.79,2.54,3.02,4.47,3.02h11.83c2.8,0,5.08-2.57,5.08-5.73V7.03c0-3.16-2.28-5.73-5.08-5.73ZM9.48,25.08c0,2.49-1.7,4.52-3.8,4.52s-3.8-2.03-3.8-4.52V6.77c0-2.49,1.7-4.52,3.8-4.52s3.8,2.03,3.8,4.52v18.3ZM30.11,25.41c0,2.39-1.66,4.34-3.69,4.34h-11.83c-2.03,0-3.69-1.95-3.69-4.34V7.03c0-2.39,1.65-4.34,3.69-4.34h11.83c2.03,0,3.69,1.95,3.69,4.34v18.37Z" style="fill: #fff; stroke-width: 0px;"/>
  <path d="M14.68,10.25h11.66c.8,0,1.45-.74,1.45-1.64v-1.1c0-.9-.65-1.64-1.45-1.64h-11.66c-.8,0-1.45.73-1.45,1.64v1.1c0,.9.65,1.64,1.45,1.64ZM13.88,7.52c0-.55.36-.99.8-.99h11.66c.44,0,.8.44.8.99v1.1c0,.55-.36.99-.8.99h-11.66c-.44,0-.8-.44-.8-.99v-1.1Z" style="fill: #fff; stroke-width: 0px;"/>
  <path d="M16.2,11.39h-1.31c-.9,0-1.64.73-1.64,1.64v1.53c0,.9.74,1.64,1.64,1.64h1.31c.9,0,1.64-.73,1.64-1.64v-1.53c0-.9-.73-1.64-1.64-1.64ZM17.19,14.56c0,.55-.44.99-.99.99h-1.31c-.55,0-.99-.44-.99-.99v-1.53c0-.55.44-.99.99-.99h1.31c.55,0,.99.44.99.99v1.53Z" style="fill: #fff; stroke-width: 0px;"/>
  <path d="M21.38,11.39h-1.31c-.9,0-1.64.73-1.64,1.64v1.53c0,.9.73,1.64,1.64,1.64h1.31c.9,0,1.64-.73,1.64-1.64v-1.53c0-.9-.74-1.64-1.64-1.64ZM22.37,14.56c0,.55-.44.99-.99.99h-1.31c-.55,0-.99-.44-.99-.99v-1.53c0-.55.44-.99.99-.99h1.31c.55,0,.99.44.99.99v1.53Z" style="fill: #fff; stroke-width: 0px;"/>
  <path d="M26.81,11.39h-1.31c-.9,0-1.64.73-1.64,1.64v1.53c0,.9.73,1.64,1.64,1.64h1.31c.9,0,1.64-.73,1.64-1.64v-1.53c0-.9-.74-1.64-1.64-1.64ZM27.8,14.56c0,.55-.44.99-.99.99h-1.31c-.55,0-.99-.44-.99-.99v-1.53c0-.55.44-.99.99-.99h1.31c.55,0,.99.44.99.99v1.53Z" style="fill: #fff; stroke-width: 0px;"/>
  <path d="M16.08,17.08h-1.31c-.9,0-1.64.73-1.64,1.64v1.53c0,.9.73,1.64,1.64,1.64h1.31c.9,0,1.64-.73,1.64-1.64v-1.53c0-.9-.73-1.64-1.64-1.64ZM17.07,20.26c0,.55-.44.99-.99.99h-1.31c-.55,0-.99-.44-.99-.99v-1.53c0-.55.44-.99.99-.99h1.31c.55,0,.99.44.99.99v1.53Z" style="fill: #fff; stroke-width: 0px;"/>
  <path d="M21.27,17.08h-1.32c-.9,0-1.64.73-1.64,1.64v1.53c0,.9.73,1.64,1.64,1.64h1.32c.9,0,1.64-.73,1.64-1.64v-1.53c0-.9-.73-1.64-1.64-1.64ZM22.26,20.26c0,.55-.44.99-.99.99h-1.32c-.55,0-.99-.44-.99-.99v-1.53c0-.55.44-.99.99-.99h1.32c.55,0,.99.44.99.99v1.53Z" style="fill: #fff; stroke-width: 0px;"/>
  <path d="M26.69,17.08h-1.32c-.9,0-1.64.73-1.64,1.64v1.53c0,.9.74,1.64,1.64,1.64h1.32c.9,0,1.64-.73,1.64-1.64v-1.53c0-.9-.74-1.64-1.64-1.64ZM27.68,20.26c0,.55-.44.99-.99.99h-1.32c-.55,0-.99-.44-.99-.99v-1.53c0-.55.44-.99.99-.99h1.32c.55,0,.99.44.99.99v1.53Z" style="fill: #fff; stroke-width: 0px;"/>
  <path d="M16.08,22.78h-1.31c-.9,0-1.64.73-1.64,1.64v1.53c0,.9.73,1.64,1.64,1.64h1.31c.9,0,1.64-.73,1.64-1.64v-1.53c0-.9-.73-1.64-1.64-1.64ZM17.07,25.95c0,.55-.44.99-.99.99h-1.31c-.55,0-.99-.44-.99-.99v-1.53c0-.55.44-.99.99-.99h1.31c.55,0,.99.44.99.99v1.53Z" style="fill: #fff; stroke-width: 0px;"/>
  <path d="M21.27,22.78h-1.32c-.9,0-1.64.73-1.64,1.64v1.53c0,.9.73,1.64,1.64,1.64h1.32c.9,0,1.64-.73,1.64-1.64v-1.53c0-.9-.73-1.64-1.64-1.64ZM22.26,25.95c0,.55-.44.99-.99.99h-1.32c-.55,0-.99-.44-.99-.99v-1.53c0-.55.44-.99.99-.99h1.32c.55,0,.99.44.99.99v1.53Z" style="fill: #fff; stroke-width: 0px;"/>
  <path d="M26.69,22.78h-1.32c-.9,0-1.64.73-1.64,1.64v1.53c0,.9.74,1.64,1.64,1.64h1.32c.9,0,1.64-.73,1.64-1.64v-1.53c0-.9-.74-1.64-1.64-1.64ZM27.68,25.95c0,.55-.44.99-.99.99h-1.32c-.55,0-.99-.44-.99-.99v-1.53c0-.55.44-.99.99-.99h1.32c.55,0,.99.44.99.99v1.53Z" style="fill: #fff; stroke-width: 0px;"/>
</svg>