<?xml version="1.0" encoding="UTF-8"?>
<svg id="Capa_1" data-name="Capa 1" xmlns="http://www.w3.org/2000/svg" width="32" height="32" viewBox="0 0 32 32">
  <path d="M31.5,23.37c0-.18.12-4.53-2.61-7.03-.19-.18-.48-.19-.69-.03-.03.02-3.2,2.41-6.16,0-.2-.16-.49-.16-.69.01-.06.05-.93.83-1.68,2.32-.17-.08-.38-.06-.54.07-.13.1-3.22,2.4-6.16,0-.14-.12-.33-.15-.5-.09-.38-.81-.9-1.61-1.63-2.28-.19-.18-.48-.19-.69-.03-.03.02-3.2,2.41-6.16,0-.2-.16-.49-.16-.69.01-.11.1-2.74,2.43-2.8,7.03,0,.14.05.28.15.38.1.1.24.16.38.16h8.62c-.1.57-.17,1.18-.18,1.85,0,.14.05.28.15.38.1.1.24.16.38.16h11.88c.29,0,.53-.23.54-.52,0-.07.02-.83-.14-1.88h8.67c.29,0,.53-.23.54-.52ZM9.9,22.81H1.59c.19-2.88,1.51-4.69,2.12-5.38,2.81,1.96,5.67.6,6.7-.02.55.59.95,1.29,1.23,1.99-.53.66-1.28,1.8-1.74,3.41ZM10.57,25.21c.19-2.89,1.51-4.7,2.12-5.38,2.81,1.96,5.67.6,6.7-.02,1.6,1.71,1.9,4.3,1.96,5.4h-10.77ZM22.08,22.81c-.27-1.1-.75-2.33-1.6-3.37.45-.97.96-1.65,1.28-2.01,2.81,1.96,5.67.6,6.7-.02,1.6,1.71,1.9,4.3,1.96,5.4h-8.34Z" style="fill: #fff; stroke-width: 0px;"/>
  <path d="M25.02,5.72c-1.35,0-2.63.53-3.59,1.49-.8.8-1.3,1.82-1.44,2.92-.93-1.22-2.39-2.02-4.04-2.02-1.35,0-2.63.53-3.59,1.49-.13.13-.26.27-.37.42-.38-2.43-2.48-4.3-5.01-4.3-1.36,0-2.63.53-3.59,1.49-.96.96-1.49,2.24-1.49,3.59,0,2.8,2.28,5.08,5.08,5.08h0c1.35,0,2.63-.53,3.59-1.49.13-.13.26-.27.37-.42.38,2.43,2.48,4.3,5.01,4.3h0c1.35,0,2.63-.53,3.59-1.49.8-.8,1.3-1.82,1.44-2.92.93,1.22,2.39,2.02,4.04,2.02h0c1.35,0,2.63-.53,3.59-1.49.96-.96,1.49-2.24,1.49-3.59,0-2.8-2.28-5.08-5.08-5.08ZM9.81,13.63c-.76.76-1.76,1.18-2.83,1.18h0c-2.21,0-4.01-1.8-4.01-4,0-1.07.42-2.07,1.17-2.83.76-.76,1.76-1.18,2.83-1.18,2.21,0,4,1.8,4.01,4,0,1.07-.42,2.07-1.18,2.83ZM18.78,16.02c-.76.76-1.76,1.18-2.83,1.18h0c-2.21,0-4.01-1.8-4.01-4,0-1.07.42-2.07,1.17-2.83.76-.76,1.76-1.18,2.83-1.18,2.21,0,4,1.8,4.01,4,0,1.07-.42,2.07-1.18,2.83ZM27.85,13.63c-.76.76-1.76,1.18-2.83,1.18h0c-2.21,0-4.01-1.8-4.01-4,0-1.07.42-2.07,1.17-2.83.76-.76,1.76-1.18,2.83-1.18,2.21,0,4,1.8,4.01,4,0,1.07-.42,2.07-1.18,2.83Z" style="fill: #fff; stroke-width: 0px;"/>
</svg>