<?xml version="1.0" encoding="UTF-8"?>
<svg id="Capa_1" data-name="Capa 1" xmlns="http://www.w3.org/2000/svg" width="32" height="32" viewBox="0 0 32 32">
  <path d="M17.84,26.24c0,.22.09.44.25.6l2.28,3.22s.04.08.07.11l.09.13c.16.23.42.36.7.36s.54-.13.7-.36l2.51-3.56s.06-.09.07-.12c.01-.02.02-.04.03-.07,0-.03.02-.05.02-.07,0-.03.02-.07.02-.11,0-.04.02-.09.02-.13V7.77c0-.11-.02-.21-.06-.31.04-.1.06-.2.06-.3v-.6c0-.15,0-1.52-.95-2.51-.6-.61-1.41-.92-2.4-.92s-1.84.31-2.45.92c-.94.95-.95,2.23-.95,2.37v.74c0,.11.02.21.06.3-.04.09-.06.2-.06.3v18.47ZM21.86,28.59h-1.19s-.05,0-.07,0l-1.4-1.98h4.04l-1.39,1.97ZM18.88,6.42s0-.98.65-1.63c.4-.41.98-.62,1.71-.62s1.27.21,1.66.61c.05.05.1.11.14.17.09.12.16.24.22.36,0,0,0,.02.01.03.11.22.17.44.21.63.01.06.02.12.03.17,0,.04.01.07.01.11,0,.04,0,.08.01.12,0,.09,0,.15,0,.18,0,0,0,.01,0,.02v.38s-2.27,0-2.27,0c-.03,0-.07-.01-.11-.01h-2.31v-.5ZM18.88,8.02h4.68v17.57h-4.68V8.02Z" style="fill: #fff; stroke-width: 0px;"/>
  <path d="M8.95,31.5l5.45-.04c.72,0,1.31-.6,1.3-1.32l-.21-28.33c0-.72-.6-1.31-1.32-1.3l-5.45.04c-.72,0-1.31.6-1.3,1.32l.21,28.33c0,.72.6,1.31,1.32,1.3ZM8.72,1.19l5.45-.04c.37,0,.67.29.67.66l.03,4.16c-.76,0-1.52.01-2.27.02-.35,0-.34.54,0,.54.76,0,1.52-.01,2.27-.02v1.55c-.75,0-1.5.01-2.26.02-.35,0-.34.54,0,.54.76,0,1.51-.01,2.27-.02v1.55c-.75,0-1.5.01-2.26.02-.35,0-.34.54,0,.54.76,0,1.51-.01,2.27-.02v1.55c-1.28,0-2.56.02-3.85.03-.35,0-.34.54,0,.54,1.29-.01,2.57-.02,3.86-.03v1.55c-.75,0-1.5.01-2.26.02-.35,0-.34.54,0,.54.76,0,1.51-.01,2.27-.02v1.55c-.75,0-1.5.01-2.26.02-.35,0-.34.54,0,.54.76,0,1.52-.01,2.27-.02v1.55c-.75,0-1.5.01-2.26.02-.35,0-.34.54,0,.54.76,0,1.52-.01,2.27-.02v1.55c-1.27,0-2.56.02-3.85.03-.35,0-.34.54,0,.54,1.29,0,2.57-.02,3.86-.03v1.55c-.75,0-1.5.01-2.26.02-.35,0-.34.54,0,.54.76,0,1.51-.01,2.27-.02v1.55c-.75,0-1.5.01-2.26.02-.35,0-.34.54,0,.54.76,0,1.51-.01,2.27-.02l.04,4.8c0,.37-.29.67-.66.67l-5.45.04c-.37,0-.67-.29-.67-.66l-.21-28.33c0-.37.29-.67.66-.67Z" style="fill: #fff; stroke-width: 0px;"/>
  <path d="M11.45,4.21c.59,0,1.07-.49,1.06-1.08,0-.59-.49-1.07-1.08-1.06-.59,0-1.07.49-1.06,1.08s.49,1.07,1.08,1.06ZM11.44,2.72c.23,0,.42.19.42.42s-.19.42-.42.42c-.23,0-.42-.19-.42-.42,0-.23.19-.42.42-.42Z" style="fill: #fff; stroke-width: 0px;"/>
</svg>