<?xml version="1.0" encoding="UTF-8"?>
<svg id="Capa_1" data-name="Capa 1" xmlns="http://www.w3.org/2000/svg" width="32" height="32" viewBox="0 0 32 32">
  <path d="M9.39,19.47h2.14v6.72c0,.2.16.37.37.37h1.88c.2,0,.37-.16.37-.37v-10.27c0-.2-.16-.37-.37-.37h-1.6c-.2,0-.37.16-.37.37,0,.02,0,.1-.06.31-.07.25-.18.45-.31.59-.2.22-.46.36-.8.43-.23.05-.66.09-1.27.12-.2,0-.35.17-.35.37v1.37c0,.2.16.37.37.37ZM9.76,18.08c.48-.03.82-.07,1.04-.12.48-.11.87-.32,1.17-.64.21-.22.37-.52.48-.89.01-.05.03-.1.04-.14h.92v9.53h-1.15v-6.72c0-.2-.16-.37-.37-.37h-2.14v-.65Z" style="fill: #fff; stroke-width: 0px;"/>
  <path d="M16.34,25.78c.69.58,1.58.87,2.63.87,1.32,0,2.33-.42,3.01-1.25.66-.81.99-1.74.99-2.77,0-1.19-.36-2.12-1.07-2.76-.7-.63-1.52-.95-2.46-.95-.47,0-.86.06-1.2.19-.05.02-.11.04-.17.07l.1-1.2h3.35c.2,0,.37-.16.37-.37v-1.71c0-.2-.16-.37-.37-.37h-5.5c-.19,0-.35.15-.37.34l-.39,5.66c0,.1.03.2.09.27.07.07.16.12.26.12l2.01.08c.14,0,.28-.07.34-.2.12-.22.28-.37.5-.45.14-.05.31-.07.52-.07.4,0,.66.12.84.38.2.3.3.67.3,1.12s-.11.82-.32,1.1c-.19.26-.46.38-.84.38-.33,0-.56-.08-.72-.24-.17-.18-.3-.46-.36-.83-.03-.17-.18-.3-.36-.3h-2.01c-.1,0-.2.04-.27.12-.07.08-.1.18-.1.28.08,1.06.47,1.89,1.18,2.48ZM17.24,23.64c.1.37.27.67.48.9.3.31.72.47,1.25.47.62,0,1.1-.23,1.43-.68.31-.41.46-.93.46-1.54s-.14-1.11-.43-1.53c-.32-.47-.8-.7-1.45-.7-.28,0-.54.04-.76.11-.33.12-.59.32-.79.6l-1.42-.06.34-4.94h4.79v.97h-3.32c-.19,0-.35.15-.37.34l-.18,2.24c-.01.14.06.27.18.35.12.07.27.07.39,0,.35-.23.55-.33.65-.37.25-.09.56-.14.94-.14.76,0,1.4.25,1.97.76.55.5.82,1.23.82,2.21,0,.87-.27,1.62-.83,2.3-.54.66-1.34.98-2.44.98-.89,0-1.6-.23-2.16-.7-.46-.39-.75-.91-.87-1.57h1.3Z" style="fill: #fff; stroke-width: 0px;"/>
  <path d="M27.09,5.29h-.9c-.08,0-.15.02-.22.05v-3.02c0-1-.82-1.82-1.82-1.82s-1.82.82-1.82,1.82v2.98s-.07-.01-.1-.01h-12.47s-.09,0-.14.02v-2.99c0-1-.82-1.82-1.82-1.82s-1.82.82-1.82,1.82v3.01c-.06-.02-.12-.03-.18-.03h-.9c-1.73,0-3.13,1.4-3.13,3.13v19.95c0,1.73,1.4,3.13,3.13,3.13h22.18c1.73,0,3.13-1.4,3.13-3.13V8.42c0-1.73-1.4-3.13-3.13-3.13ZM23.35,2.32c0-.44.36-.8.8-.8s.8.36.8.8v5.47c0,.44-.36.8-.8.8s-.8-.36-.8-.8V2.32ZM7.01,2.32c0-.44.36-.8.8-.8s.8.36.8.8v5.47c0,.44-.36.8-.8.8s-.8-.36-.8-.8V2.32ZM29.12,28.37c0,1.12-.91,2.03-2.03,2.03H4.91c-1.12,0-2.03-.91-2.03-2.03V8.42c0-1.12.91-2.03,2.03-2.03h.35v1.08c0,1.39,1.13,2.53,2.53,2.53s2.53-1.13,2.53-2.53v-1.08h11.36v1.08c0,1.39,1.13,2.53,2.53,2.53s2.53-1.13,2.53-2.53v-1.08h.35c1.12,0,2.03.91,2.03,2.03v19.95Z" style="fill: #fff; stroke-width: 0px;"/>
  <path d="M27.51,13.24H4.58c-.31,0-.55.25-.55.55v13.55c0,1.05.85,1.9,1.9,1.9h20.23c1.05,0,1.9-.85,1.9-1.9v-13.55c0-.31-.25-.55-.55-.55ZM26.96,27.34c0,.44-.36.8-.8.8H5.93c-.44,0-.8-.36-.8-.8v-13h21.83v13Z" style="fill: #fff; stroke-width: 0px;"/>
</svg>