<?xml version="1.0" encoding="UTF-8"?>
<svg id="Capa_1" data-name="Capa 1" xmlns="http://www.w3.org/2000/svg" width="32" height="32" viewBox="0 0 32 32">
  <path d="M31.09,12.93l-3.73-.86v-6.14c0-.29-.24-.53-.53-.53H1.03c-.29,0-.53.24-.53.53v13.85c0,.29.24.53.53.53h2.25v.06c-.04.14-.02.28.05.4.08.12.19.2.33.24l.28.06,24.04,5.53s.05,0,.08,0c.24,0,.45-.16.51-.4l2.4-10.42.51-2.23c.03-.14,0-.28-.07-.4-.07-.12-.19-.2-.33-.24ZM27.35,16.84s0,0,.01,0v.06s-.01-.06-.01-.06ZM17.51,21c.74,0,1.47-.21,2.12-.61.04-.02.08-.05.11-.08h6.83l-.26,1.13c-.08,0-.16-.01-.24-.01-1.06-.01-2.04.56-2.56,1.48-.07.13-.14.27-.19.41l-13.08-3.01h5.03c.1.07.2.13.31.19.08.04.16.09.25.12.25.12.51.21.79.27.3.07.6.1.91.1ZM16.89,20.31h1.24c-.41.08-.83.08-1.24,0ZM1.56,19.24V6.46h24.72v12.79H1.56ZM27.66,25.44l-22.27-5.13h3.35c.01.1.08.19.19.21l14.49,3.34s.04,0,.06,0c.11,0,.21-.07.24-.18.3-1.05,1.24-1.74,2.29-1.76.15,0,.3.01.46.04.13.02.26-.06.29-.19l.36-1.54s.07-.05.1-.08c.09-.1.15-.23.15-.37v-.66l.55-2.38c.03-.13-.05-.26-.17-.29-.13-.04-.25-.09-.37-.14v-3.14l2.97.68-2.67,11.59Z" style="fill: #fff; stroke-width: 0px;"/>
  <path d="M24.25,9.83c-1.28-.07-2.3-1.12-2.36-2.45,0-.14-.12-.25-.26-.25H6.23c-.14,0-.25.11-.26.25-.06,1.33-1.08,2.38-2.36,2.45-.14,0-.25.12-.25.26v5.52c0,.14.11.25.25.26,1.28.07,2.3,1.12,2.36,2.45,0,.14.12.25.26.25h15.4c.14,0,.25-.11.26-.25.06-1.33,1.08-2.38,2.36-2.45.14,0,.25-.12.25-.26v-5.52c0-.14-.11-.25-.25-.26ZM23.97,15.38c-1.35.18-2.41,1.28-2.59,2.68H6.47c-.18-1.4-1.23-2.49-2.59-2.68v-5.05c1.35-.18,2.41-1.28,2.59-2.68h14.92c.18,1.4,1.23,2.49,2.59,2.68v5.05Z" style="fill: #fff; stroke-width: 0px;"/>
  <path d="M14.06,8.58c-2.29,0-4.15,1.92-4.15,4.28s1.86,4.28,4.15,4.28,4.15-1.92,4.15-4.28-1.86-4.28-4.15-4.28ZM14.06,16.46c-1.92,0-3.49-1.62-3.49-3.61s1.57-3.61,3.49-3.61,3.49,1.62,3.49,3.61-1.57,3.61-3.49,3.61Z" style="fill: #fff; stroke-width: 0px;"/>
</svg>