<?xml version="1.0" encoding="UTF-8"?>
<svg id="Capa_1" data-name="Capa 1" xmlns="http://www.w3.org/2000/svg" width="32" height="32" viewBox="0 0 32 32">
  <path d="M21.89,31.34h0c.14,0,.29-.05.4-.16l6.19-5.84c.12-.11.18-.26.18-.42.06-.1.1-.22.1-.35V2.95c0-1.35-1.1-2.45-2.45-2.45H5.69c-1.35,0-2.45,1.1-2.45,2.45v26.11c0,1.35,1.1,2.45,2.45,2.45h15.77c.17,0,.32-.06.43-.16ZM22.47,29.42v-2.24c0-.93.75-1.68,1.68-1.68h2.48l-4.16,3.92ZM20.78,30.14H5.69c-.6,0-1.09-.49-1.09-1.09V2.95c0-.6.49-1.09,1.09-1.09h20.62c.6,0,1.09.49,1.09,1.09v20.95h-3.17c-1.9,0-3.45,1.55-3.45,3.45v2.79Z" style="fill: #fff; stroke-width: 0px;"/>
  <path d="M8.53,9.52h14.95c.38,0,.68-.3.68-.68v-1.22c0-.37-.3-.68-.68-.68h-14.95c-.37,0-.68.3-.68.68v1.22c0,.38.3.68.68.68ZM8.66,7.76h14.68v.94h-14.68v-.94Z" style="fill: #fff; stroke-width: 0px;"/>
  <path d="M8.53,13.78h14.95c.38,0,.68-.3.68-.68v-1.22c0-.37-.3-.68-.68-.68h-14.95c-.37,0-.68.3-.68.68v1.22c0,.37.3.68.68.68ZM8.66,12.02h14.68v.94h-14.68v-.94Z" style="fill: #fff; stroke-width: 0px;"/>
  <path d="M24.15,17.35v-1.22c0-.38-.3-.68-.68-.68h-14.95c-.37,0-.68.3-.68.68v1.22c0,.37.3.68.68.68h14.95c.38,0,.68-.3.68-.68ZM23.34,17.22h-14.68v-.94h14.68v.94Z" style="fill: #fff; stroke-width: 0px;"/>
</svg>