<?xml version="1.0" encoding="UTF-8"?>
<svg id="Capa_1" data-name="Capa 1" xmlns="http://www.w3.org/2000/svg" width="37" height="37" viewBox="0 0 37 37">
  <path d="M36.18,17.58h-13.47V.6H3.37v34.51H-6.37v1.29h49.75v-1.29h-7.19v-17.53ZM21.43,34.56H4.66V1.89h16.77v32.67ZM34.89,34.56h-11.97v-15.69h11.97v15.69Z" style="fill: #fff; stroke-width: 0px;"/>
  <path d="M12.14,5.48h-4.14v3.55h4.14v-3.55ZM11.5,8.39h-2.85v-2.26h2.85v2.26Z" style="fill: #fff; stroke-width: 0px;"/>
  <path d="M18.09,5.48h-4.14v3.55h4.14v-3.55ZM17.44,8.39h-2.85v-2.26h2.85v2.26Z" style="fill: #fff; stroke-width: 0px;"/>
  <path d="M18.09,10.1h-4.14v3.55h4.14v-3.55ZM17.44,13.01h-2.85v-2.26h2.85v2.26Z" style="fill: #fff; stroke-width: 0px;"/>
  <path d="M18.09,18.28h-4.14v3.55h4.14v-3.55ZM17.44,21.19h-2.85v-2.26h2.85v2.26Z" style="fill: #fff; stroke-width: 0px;"/>
  <path d="M18.09,26.39h-4.14v3.55h4.14v-3.55ZM17.44,29.3h-2.85v-2.26h2.85v2.26Z" style="fill: #fff; stroke-width: 0px;"/>
  <path d="M12.14,26.39h-4.14v3.55h4.14v-3.55ZM11.5,29.3h-2.85v-2.26h2.85v2.26Z" style="fill: #fff; stroke-width: 0px;"/>
  <path d="M28.66,20.26h-4.14v3.55h4.14v-3.55ZM28.01,23.17h-2.85v-2.26h2.85v2.26Z" style="fill: #fff; stroke-width: 0px;"/>
  <path d="M33.86,26.01h-4.14v3.55h4.14v-3.55ZM33.21,28.91h-2.85v-2.26h2.85v2.26Z" style="fill: #fff; stroke-width: 0px;"/>
</svg>