<?xml version="1.0" encoding="UTF-8"?>
<svg id="Capa_1" data-name="Capa 1" xmlns="http://www.w3.org/2000/svg" width="37" height="37" viewBox="0 0 37 37">
  <path d="M31.84,16.7c.06-.07.1-.15.13-.24l4.07-12.23c.07-.16.12-.32.16-.49,0-.01,0-.03,0-.04.17-.85-.09-1.73-.71-2.35-.63-.63-1.53-.89-2.41-.69-.03,0-.06.01-.08.02-.12.03-.22.07-.33.11l-11.89,3.92c-.61.14-1.09.39-1.47.78l-8.64,8.64-7.04-1.12c-.05,0-.1,0-.15,0-.75-.11-1.51.13-2.05.68-.93.93-.94,2.42-.04,3.37.02.02.03.04.05.06l3.12,3.12-.86.86c-1.19,1.19-1.19,3.14,0,4.33l1.02,1.02-.1.2c-.15.29-.09.64.14.87l4.46,4.46c.23.23.58.28.87.14l.2-.1,1.06,1.06c.58.58,1.35.9,2.17.9h0c.82,0,1.59-.32,2.16-.9l.68-.68,3.16,3.16s.06.05.09.07c.03.03.05.06.08.09.45.45,1.06.7,1.7.7h0c.64,0,1.25-.25,1.7-.71.63-.63.86-1.56.6-2.41,0-.03,0-.06,0-.09l-1.11-7.03,8.71-8.71c.22-.21.39-.46.54-.75ZM2.24,16.48s-.04-.05-.06-.07c-.02-.02-.04-.04-.06-.06-.52-.55-.51-1.43.03-1.97.34-.34.83-.48,1.3-.38.07.02.13.02.2,0l6.17.98-4.53,4.53-3.04-3.04ZM22.68,33.16c-.02.1-.01.2.02.3.21.53.09,1.13-.31,1.53-.27.27-.62.41-1,.41h0c-.38,0-.73-.15-1-.41-.02-.02-.04-.04-.05-.07l-.05-.07c-.05-.06-.11-.11-.19-.15l-2.98-2.98,4.59-4.59.95,6.02ZM30.55,15.91c-.09.2-.19.36-.32.48l-15.6,15.6c-.29.3-.69.46-1.11.46h0c-.16,0-.31-.02-.46-.07-.15-.04-.28-.11-.41-.2-.09-.06-.16-.12-.24-.2l-1.44-1.44c-.14-.14-.34-.22-.53-.22-.12,0-.23.03-.34.08l-.2.1-3.69-3.69.1-.2c.15-.29.09-.64-.14-.87l-1.4-1.4c-.61-.61-.61-1.6,0-2.21l15.6-15.6c.18-.18.43-.31.77-.38.02,0,.05-.01.07-.02l11.95-3.94s.04-.01.06-.02c.04-.02.09-.03.14-.05.01,0,.03,0,.04,0,.38-.09.76.02,1.03.29.25.25.37.62.3.97,0,0,0,.02,0,.03-.02.09-.04.17-.08.24-.01.02-.02.05-.03.07l-4.03,12.09s-.04.06-.05.09Z" style="fill: #fff; stroke-width: 0px;"/>
  <path d="M16.51,18.7c-.51-.51-1.2-.8-1.92-.8h0c-.73,0-1.41.28-1.92.8l-3.33,3.33c-1.06,1.06-1.06,2.79,0,3.85l1.57,1.57c.51.51,1.2.8,1.92.8h0c.73,0,1.41-.28,1.92-.8l3.33-3.33c.51-.51.8-1.2.8-1.92,0-.73-.28-1.41-.8-1.93l-1.57-1.57ZM17.02,23.06l-3.33,3.33h0c-.23.23-.54.36-.86.36h0c-.33,0-.63-.13-.87-.36l-1.57-1.57c-.48-.48-.48-1.25,0-1.73l3.33-3.33c.23-.23.54-.36.86-.36h0c.33,0,.64.13.87.36l1.57,1.57c.23.23.36.54.36.87s-.13.63-.36.87Z" style="fill: #fff; stroke-width: 0px;"/>
  <path d="M24.72,10.29c-.62-.33-1.31-.5-2.02-.5h0c-1.15,0-2.23.45-3.04,1.26-.81.81-1.26,1.89-1.26,3.04,0,1.15.45,2.23,1.26,3.04.81.81,1.89,1.26,3.04,1.26h0c1.15,0,2.23-.45,3.04-1.26.81-.81,1.26-1.89,1.26-3.04,0-1.15-.45-2.23-1.26-3.04-.3-.3-.65-.56-1.02-.76ZM24.68,16.07c-.53.53-1.23.82-1.98.82h0c-.75,0-1.45-.29-1.98-.82-.53-.53-.82-1.23-.82-1.98s.29-1.45.82-1.98c.53-.53,1.23-.82,1.98-.82h0c.75,0,1.45.29,1.98.82.53.53.82,1.23.82,1.98s-.29,1.45-.82,1.98Z" style="fill: #fff; stroke-width: 0px;"/>
</svg>