<?xml version="1.0" encoding="UTF-8"?>
<svg id="Capa_1" data-name="Capa 1" xmlns="http://www.w3.org/2000/svg" width="37" height="37" viewBox="0 0 37 37">
  <path d="M21.81,11.92h10.54c.2,0,.36-.16.36-.36v-2.89c0-.2-.16-.36-.36-.36h-10.54c-.2,0-.36.16-.36.36v2.89c0,.2.16.36.36.36ZM22.17,9.03h9.83v2.18h-9.83v-2.18Z" style="fill: #fff; stroke-width: 0px;"/>
  <path d="M32.4,25.41h-10.54c-.2,0-.36.16-.36.36v2.89c0,.2.16.36.36.36h10.54c.2,0,.36-.16.36-.36v-2.89c0-.2-.16-.36-.36-.36ZM32.04,28.3h-9.83v-2.18h9.83v2.18Z" style="fill: #fff; stroke-width: 0px;"/>
  <path d="M26,24.8h2.26c.2,0,.36-.16.36-.36v-2.17c0-.2-.16-.36-.36-.36h-2.26c-.2,0-.36.16-.36.36v2.17c0,.2.16.36.36.36ZM26.36,22.62h1.55v1.46h-1.55v-1.46Z" style="fill: #fff; stroke-width: 0px;"/>
  <path d="M28.26,29.62h-2.26c-.2,0-.36.16-.36.36v2.18c0,.2.16.36.36.36h2.26c.2,0,.36-.16.36-.36v-2.18c0-.2-.16-.36-.36-.36ZM27.9,31.8h-1.55v-1.46h1.55v1.46Z" style="fill: #fff; stroke-width: 0px;"/>
  <path d="M15.14,8.31h-3.47v-3.47c0-.2-.16-.36-.36-.36h-2.89c-.2,0-.36.16-.36.36v3.47h-3.47c-.2,0-.36.16-.36.36v2.89c0,.2.16.36.36.36h3.47v3.47c0,.2.16.36.36.36h2.89c.2,0,.36-.16.36-.36v-3.47h3.47c.2,0,.36-.16.36-.36v-2.89c0-.2-.16-.36-.36-.36ZM14.78,11.2h-3.47c-.2,0-.36.16-.36.36v3.47h-2.18v-3.47c0-.2-.16-.36-.36-.36h-3.47v-2.18h3.47c.2,0,.36-.16.36-.36v-3.47h2.18v3.47c0,.2.16.36.36.36h3.47v2.18Z" style="fill: #fff; stroke-width: 0px;"/>
  <path d="M12.42,27.41l2.45-2.45c.07-.07.1-.16.1-.25s-.04-.19-.1-.25l-2.04-2.04c-.14-.14-.36-.14-.5,0l-2.45,2.45-2.45-2.45c-.14-.14-.36-.14-.5,0l-2.04,2.04c-.07.07-.1.16-.1.25s.04.19.1.25l2.45,2.45-2.45,2.45c-.14.14-.14.36,0,.5l2.04,2.04c.13.13.37.13.5,0l2.45-2.45,2.45,2.45c.07.07.16.1.25.1s.19-.04.25-.1l2.04-2.04c.14-.14.14-.36,0-.5l-2.45-2.45ZM12.57,31.65l-2.45-2.45c-.07-.07-.16-.1-.25-.1s-.19.04-.25.1l-2.45,2.45-1.54-1.54,2.45-2.45c.14-.14.14-.36,0-.5l-2.45-2.45,1.54-1.54,2.45,2.45c.13.13.37.13.5,0l2.45-2.45,1.54,1.54-2.45,2.45c-.14.14-.14.36,0,.5l2.45,2.45-1.54,1.54Z" style="fill: #fff; stroke-width: 0px;"/>
  <path d="M36.25,33.55v-12.52c0-1.11-.65-2.08-1.58-2.55.91-.48,1.53-1.43,1.53-2.52V3.45c0-1.57-1.28-2.85-2.85-2.85h-12.52c-.98,0-1.84.5-2.35,1.25-.51-.75-1.38-1.25-2.36-1.25H3.6C2.03.6.75,1.88.75,3.45v12.52c0,1.1.63,2.06,1.56,2.53-.92.47-1.56,1.43-1.56,2.53v12.52c0,1.57,1.28,2.85,2.85,2.85h12.52c1,0,1.87-.51,2.38-1.29.51.78,1.39,1.29,2.38,1.29h12.52c1.57,0,2.85-1.28,2.85-2.85ZM16.83,33.55c0,.39-.32.71-.71.71H3.6c-.39,0-.71-.32-.71-.71v-12.52c0-.39.32-.71.71-.71h12.52c.39,0,.71.32.71.71v12.52ZM16.83,15.97c0,.39-.32.71-.71.71H3.6c-.39,0-.71-.32-.71-.71V3.45c0-.39.32-.71.71-.71h12.52c.39,0,.71.32.71.71v12.52ZM18.5,19.48c-.27-.41-.65-.75-1.09-.98.43-.22.8-.54,1.06-.94.27.4.65.73,1.09.95-.43.23-.8.56-1.06.97ZM20.12,3.45c0-.39.32-.71.71-.71h12.52c.39,0,.71.32.71.71v12.52c0,.39-.32.71-.71.71h-12.52c-.39,0-.71-.32-.71-.71V3.45ZM20.17,33.55v-12.52c0-.39.32-.71.71-.71h12.52c.39,0,.71.32.71.71v12.52c0,.39-.32.71-.71.71h-12.52c-.39,0-.71-.32-.71-.71Z" style="fill: #fff; stroke-width: 0px;"/>
</svg>