<?xml version="1.0" encoding="UTF-8"?>
<svg id="Capa_1" data-name="Capa 1" xmlns="http://www.w3.org/2000/svg" width="37" height="37" viewBox="0 0 37 37">
  <path d="M32.83,20.63c-2.04-1.75-5.08-2.5-9.03-2.23,2.57-1.76,4.27-4.71,4.27-8.05,0-5.37-4.37-9.74-9.74-9.74s-9.74,4.37-9.74,9.74c0,3.18,1.53,6,3.89,7.78-2.85-.28-8.86-.07-10.69,6.26-.02.07-.03.14-.03.2v11.07c0,.41.33.74.74.74h32.02c.41,0,.74-.33.74-.74v-10.54s0-.03,0-.04c0-.1-.17-2.53-2.41-4.45ZM9.97,10.34c0-4.61,3.75-8.35,8.35-8.35s8.35,3.75,8.35,8.35-3.73,8.33-8.31,8.35h-.08c-4.59-.02-8.31-3.76-8.31-8.35ZM18.18,21.66h.71l1.06,2.18-1.45,2.81-1.08-2.12.75-2.87ZM17.3,20.18c0-.27.22-.5.5-.5h1.4c.27,0,.5.22.5.5s-.22.5-.5.5h-1.4c-.27,0-.5-.22-.5-.5ZM19.9,21.48c.47-.25.79-.74.79-1.3,0-.13-.02-.25-.05-.37.59-.14,1.15-.34,1.69-.58l-1.81,3.52-.61-1.27ZM17.19,21.53l-.44,1.68-1.92-3.77c.49.19.99.34,1.51.45-.02.09-.03.19-.03.29,0,.6.36,1.12.88,1.35ZM33.77,34.92H3.23v-10.22c1.85-6.18,8.52-5.27,10.09-4.97l4.52,8.89c.13.25.38.4.66.4h0c.28,0,.53-.15.66-.4l4.49-8.73c3.66-.29,6.41.32,8.2,1.83,1.71,1.45,1.91,3.23,1.92,3.42v9.77Z" style="fill: #fff; stroke-width: 0px;"/>
</svg>